<svg xmlns="http://www.w3.org/2000/svg" width="61" height="61" viewBox="0 0 61 61">
  <g id="Group_54" data-name="Group 54" transform="translate(1018 -355)">
    <circle id="Ellipse_5" data-name="Ellipse 5" cx="30.5" cy="30.5" r="30.5" transform="translate(-1018 355)" fill="#eee"/>
    <path id="Icon_awesome-book" data-name="Icon awesome-book" d="M20.81,16.722V1.115A1.112,1.112,0,0,0,19.7,0H4.459A4.46,4.46,0,0,0,0,4.459V19.324a4.46,4.46,0,0,0,4.459,4.459H19.7a1.112,1.112,0,0,0,1.115-1.115v-.743a1.123,1.123,0,0,0-.413-.869,10.359,10.359,0,0,1,0-3.47A1.107,1.107,0,0,0,20.81,16.722ZM5.946,6.224a.28.28,0,0,1,.279-.279h9.848a.28.28,0,0,1,.279.279v.929a.28.28,0,0,1-.279.279H6.224a.28.28,0,0,1-.279-.279Zm0,2.973a.28.28,0,0,1,.279-.279h9.848a.28.28,0,0,1,.279.279v.929a.28.28,0,0,1-.279.279H6.224a.28.28,0,0,1-.279-.279ZM17.716,20.81H4.459a1.486,1.486,0,0,1,0-2.973H17.716A16.723,16.723,0,0,0,17.716,20.81Z" transform="translate(-998 374)" fill="#856ac0"/>
  </g>
</svg>
