<svg xmlns="http://www.w3.org/2000/svg" width="22.407" height="22.407" viewBox="0 0 22.407 22.407">
  <g id="Group_60" data-name="Group 60" transform="translate(127.27 -1037.149)">
    <path id="Path_2" data-name="Path 2" d="M-84.981,1037.149c.053.02.1.043.159.059a1.625,1.625,0,0,1,1.2,1.572q.007,4.9,0,9.8a1.626,1.626,0,0,1-1.688,1.638c-1.816.008-3.632,0-5.448,0-.474,0-.948,0-1.422,0a1.639,1.639,0,0,1-1.711-1.708q-.006-4.824,0-9.649a1.632,1.632,0,0,1,1.332-1.685.244.244,0,0,0,.057-.031Zm-7.516,6.519q0,2.384,0,4.767c0,.321.064.387.381.387H-85.4c.317,0,.377-.062.377-.387v-9.491c0-.344-.049-.394-.389-.394h-6.692c-.335,0-.391.056-.391.394Q-92.5,1041.306-92.5,1043.668Z" transform="translate(-21.239)" fill-rule="evenodd"/>
    <path id="Path_3" data-name="Path 3" d="M-127.27,1064.2a3.821,3.821,0,0,1,.151-.431,1.573,1.573,0,0,1,1.478-.953q3.5-.018,7,0a1.626,1.626,0,0,1,1.641,1.729q0,3.063,0,6.126,0,1.718,0,3.435a1.648,1.648,0,0,1-1.771,1.778h-6.7a1.643,1.643,0,0,1-1.778-1.325c0-.012-.019-.021-.028-.031Zm1.4,5.133q0,2.394,0,4.789c0,.3.063.361.355.362h6.758c.29,0,.358-.068.358-.362q0-4.768,0-9.535c0-.308-.067-.376-.37-.376H-125.5c-.3,0-.365.065-.365.376Q-125.87,1066.962-125.87,1069.335Z" transform="translate(0 -16.331)" fill-rule="evenodd"/>
    <path id="Path_4" data-name="Path 4" d="M-118.386,1037.149a4.809,4.809,0,0,1,.809.4,1.513,1.513,0,0,1,.579,1.266c0,1.378.01,2.756,0,4.134a1.619,1.619,0,0,1-1.663,1.663q-3.467.016-6.934,0a1.624,1.624,0,0,1-1.633-1.286.833.833,0,0,0-.04-.1v-4.726c.027-.073.056-.146.08-.221a1.584,1.584,0,0,1,.854-.972c.136-.064.281-.11.422-.164Zm-3.743,1.4H-125.5c-.313,0-.372.057-.372.366q0,1.967,0,3.936c0,.3.064.37.372.37h6.734c.293,0,.365-.071.365-.359q0-1.978,0-3.958c0-.289-.07-.354-.365-.355Z" fill-rule="evenodd"/>
    <path id="Path_5" data-name="Path 5" d="M-88.754,1085.7q-1.706,0-3.411,0a1.64,1.64,0,0,1-1.734-1.726q-.006-2.011,0-4.023a1.639,1.639,0,0,1,1.718-1.721q3.422-.005,6.845,0a1.635,1.635,0,0,1,1.709,1.728q0,2.012,0,4.024a1.635,1.635,0,0,1-1.715,1.719Q-87.048,1085.7-88.754,1085.7Zm-.012-1.4H-85.4c.313,0,.371-.058.371-.368q0-1.967,0-3.936c0-.3-.064-.368-.374-.368h-6.712c-.321,0-.385.064-.385.382q0,1.957,0,3.914c0,.317.062.376.388.376Z" transform="translate(-21.238 -26.142)" fill-rule="evenodd"/>
  </g>
</svg>
