<svg xmlns="http://www.w3.org/2000/svg" width="59.397" height="59.397" viewBox="0 0 59.397 59.397">
  <g id="Group_50" data-name="Group 50" transform="translate(-1467.226 -145.801)">
    <path id="Icon_awesome-question-circle" data-name="Icon awesome-question-circle" d="M59.96,30.261a29.7,29.7,0,1,1-29.7-29.7A29.7,29.7,0,0,1,59.96,30.261Zm-28.9-19.879c-6.526,0-10.689,2.749-13.957,7.635a1.439,1.439,0,0,0,.325,1.947l4.155,3.151a1.437,1.437,0,0,0,2-.254c2.139-2.713,3.606-4.287,6.862-4.287,2.446,0,5.472,1.575,5.472,3.947,0,1.793-1.481,2.714-3.9,4.069-2.817,1.579-6.545,3.545-6.545,8.462v.479a1.437,1.437,0,0,0,1.437,1.437h6.706a1.437,1.437,0,0,0,1.437-1.437v-.16c0-3.408,9.962-3.55,9.962-12.774C45.013,15.651,37.808,10.382,31.058,10.382Zm-.8,29.7A5.509,5.509,0,1,0,35.77,45.59,5.515,5.515,0,0,0,30.261,40.081Z" transform="translate(1466.664 145.239)" fill="#9f8323"/>
  </g>
</svg>
