<svg xmlns="http://www.w3.org/2000/svg" width="30" height="30" viewBox="0 0 30 30">
  <path id="Icon_material-monetization-on" data-name="Icon material-monetization-on" d="M18,3A15,15,0,1,0,33,18,15.005,15.005,0,0,0,18,3Zm2.115,24.135V30h-4V27.1c-2.565-.54-4.74-2.19-4.905-5.1h2.94c.15,1.575,1.23,2.805,3.975,2.805,2.94,0,3.6-1.47,3.6-2.385,0-1.245-.66-2.415-4.005-3.21-3.72-.9-6.27-2.43-6.27-5.505,0-2.58,2.085-4.26,4.665-4.815V6h4.005V8.925A5.3,5.3,0,0,1,24.39,14.01H21.45c-.075-1.665-.96-2.805-3.33-2.805-2.25,0-3.6,1.02-3.6,2.46,0,1.26.975,2.085,4.005,2.865S24.8,18.615,24.8,22.4c-.015,2.745-2.07,4.245-4.68,4.74Z" transform="translate(-3 -3)" fill="#5caba0"/>
</svg>
