<svg xmlns="http://www.w3.org/2000/svg" width="26" height="17.079" viewBox="0 0 26 17.079">
  <g id="Group_7" data-name="Group 7" transform="translate(203.898 -1021.925)">
    <path id="Path_16" data-name="Path 16" d="M-203.9,1033.62c.05-.47.092-.94.154-1.409a20.679,20.679,0,0,1,1.964-6.941,7.144,7.144,0,0,1,2.02-2.509,3.863,3.863,0,0,1,2.84-.79c.995.12,1.976.359,2.962.55.929.18,1.85.427,2.787.524a6.011,6.011,0,0,0,1.779-.176c1.192-.241,2.37-.553,3.56-.8a4.883,4.883,0,0,1,2.919.178,5.037,5.037,0,0,1,2.045,1.658,12.652,12.652,0,0,1,2.034,4.389,22,22,0,0,1,.933,6.48,6.569,6.569,0,0,1-.541,2.843,2.292,2.292,0,0,1-2.6,1.344,5.984,5.984,0,0,1-2.52-1.138,17.266,17.266,0,0,1-2.063-1.641,6.7,6.7,0,0,0-4.29-1.836,9.763,9.763,0,0,0-4.081.45,5.3,5.3,0,0,0-1.868,1.142,17.94,17.94,0,0,1-2.845,2.2,5.74,5.74,0,0,1-1.979.821,2.364,2.364,0,0,1-2.757-1.541,6.034,6.034,0,0,1-.4-1.878c-.01-.132-.034-.263-.051-.4Zm1.2.51a7.865,7.865,0,0,0,.309,2.715,1.192,1.192,0,0,0,1.557.875,6.907,6.907,0,0,0,1.53-.652,16.2,16.2,0,0,0,2.717-2.118,6.2,6.2,0,0,1,2.08-1.234,10.7,10.7,0,0,1,6.682-.172,6.394,6.394,0,0,1,2.485,1.379c.753.665,1.532,1.305,2.337,1.908a4.923,4.923,0,0,0,2.1.977,1.146,1.146,0,0,0,1.359-.672,4.69,4.69,0,0,0,.427-1.942,21.053,21.053,0,0,0-.839-6.464,11.563,11.563,0,0,0-1.807-3.995,3.474,3.474,0,0,0-3.43-1.533,27.088,27.088,0,0,0-3.124.649,9.419,9.419,0,0,1-5.031.029,30.391,30.391,0,0,0-3.142-.687,3.366,3.366,0,0,0-2.953.89,7.088,7.088,0,0,0-1.656,2.528A21.055,21.055,0,0,0-202.693,1034.13Z" fill-rule="evenodd"/>
    <path id="Path_17" data-name="Path 17" d="M-192.695,1029.411a1.867,1.867,0,0,1-1.5,1.8.265.265,0,0,0-.249.247,1.9,1.9,0,0,1-1.856,1.506,1.869,1.869,0,0,1-1.828-1.557c-.03-.166-.129-.167-.245-.191a1.874,1.874,0,0,1-1.271-2.8,1.8,1.8,0,0,1,1.266-.89c.135-.025.222-.051.252-.218a1.88,1.88,0,0,1,1.83-1.533,1.88,1.88,0,0,1,1.853,1.5c.032.158.085.223.247.252A1.883,1.883,0,0,1-192.695,1029.411Zm-1.165-.04a.649.649,0,0,0-.64-.677c-.135-.008-.271,0-.406,0a.642.642,0,0,1-.695-.7,3.245,3.245,0,0,0-.034-.5.631.631,0,0,0-.7-.549.662.662,0,0,0-.626.671c0,.119,0,.237,0,.356a.648.648,0,0,1-.695.721c-.152.007-.306-.006-.456.013a.637.637,0,0,0-.591.671.654.654,0,0,0,.63.639c.143.009.287,0,.431,0a.635.635,0,0,1,.68.657c.007.135,0,.271,0,.406a.652.652,0,0,0,.642.678.655.655,0,0,0,.716-.63c.013-.142,0-.287.007-.43a.608.608,0,0,1,.61-.641c.186-.013.373,0,.558-.023A.637.637,0,0,0-193.86,1029.372Z" transform="translate(-0.635 -0.613)" fill-rule="evenodd"/>
    <path id="Path_18" data-name="Path 18" d="M-181.95,1025.974a1.117,1.117,0,0,1,1.133,1.118,1.116,1.116,0,0,1-1.118,1.133,1.114,1.114,0,0,1-1.133-1.118A1.116,1.116,0,0,1-181.95,1025.974Z" transform="translate(-3.315 -0.644)" fill-rule="evenodd"/>
    <path id="Path_19" data-name="Path 19" d="M-184.7,1030.962a1.133,1.133,0,0,1-1.106-1.153,1.133,1.133,0,0,1,1.156-1.1,1.137,1.137,0,0,1,1.107,1.155A1.133,1.133,0,0,1-184.7,1030.962Z" transform="translate(-2.878 -1.079)" fill-rule="evenodd"/>
    <path id="Path_20" data-name="Path 20" d="M-180.338,1029.826a1.133,1.133,0,0,1,1.138-1.122,1.132,1.132,0,0,1,1.123,1.138,1.131,1.131,0,0,1-1.139,1.121A1.129,1.129,0,0,1-180.338,1029.826Z" transform="translate(-3.749 -1.079)" fill-rule="evenodd"/>
    <path id="Path_21" data-name="Path 21" d="M-180.816,1032.559a1.133,1.133,0,0,1-1.117,1.144,1.132,1.132,0,0,1-1.135-1.124,1.131,1.131,0,0,1,1.116-1.144A1.133,1.133,0,0,1-180.816,1032.559Z" transform="translate(-3.315 -1.513)" fill-rule="evenodd"/>
  </g>
</svg>
