<svg id="Group_14" data-name="Group 14" xmlns="http://www.w3.org/2000/svg" width="83.653" height="60.202" viewBox="0 0 83.653 60.202">
  <path id="Path_28" data-name="Path 28" d="M-506.1,930.81l-1.42.1a18.83,18.83,0,0,1-.418-2.482,1.44,1.44,0,0,1,.559-1.08c1.256-.809,2.564-1.542,3.875-2.261.737-.4.928-.858.475-1.622q-2.031-3.428-3.988-6.9c-.4-.706-.828-.876-1.548-.434-1.223.75-2.5,1.415-3.72,2.166a1.276,1.276,0,0,1-1.783-.16,18.7,18.7,0,0,0-7.167-4.124,1.108,1.108,0,0,1-.893-1.263c.034-1.436.015-2.873.008-4.31-.005-1.067-.183-1.255-1.2-1.257-2.629-.006-5.257.019-7.886-.014-.868-.011-1.214.312-1.191,1.184.04,1.466-.008,2.935.019,4.4a1.141,1.141,0,0,1-.924,1.262,19.076,19.076,0,0,0-7.232,4.19,1.131,1.131,0,0,1-1.551.164c-1.28-.773-2.608-1.468-3.884-2.247-.726-.443-1.152-.268-1.549.434-1.307,2.313-2.626,4.619-3.983,6.9-.458.77-.278,1.2.472,1.606,1.289.7,2.533,1.474,3.814,2.186a1.113,1.113,0,0,1,.619,1.422,18.458,18.458,0,0,0,0,8.359,1.162,1.162,0,0,1-.69,1.474c-1.281.712-2.527,1.486-3.815,2.185-.741.4-.815.853-.4,1.556q2.027,3.43,3.98,6.9c.436.778.905.844,1.629.4,1.25-.763,2.549-1.447,3.8-2.206a1.129,1.129,0,0,1,1.551.152,19.016,19.016,0,0,0,7.23,4.194,1.185,1.185,0,0,1,.935,1.347c-.032,1.436.021,2.874-.021,4.309-.025.864.3,1.215,1.178,1.2,1.768-.039,3.537-.012,5.37-.012v1.44c-2.066,0-4.107.062-6.143-.025a2.036,2.036,0,0,1-1.85-2.152c-.03-1.344-.033-2.69,0-4.034a.8.8,0,0,0-.634-.923,19.777,19.777,0,0,1-6.462-3.739.8.8,0,0,0-1.117-.079q-1.647.993-3.334,1.919a2.187,2.187,0,0,1-3.28-.876q-2.136-3.631-4.211-7.3a2.19,2.19,0,0,1,.921-3.264c1.076-.641,2.154-1.278,3.256-1.871a.862.862,0,0,0,.522-1.089,18.745,18.745,0,0,1,0-7.373.861.861,0,0,0-.528-1.086c-1.075-.578-2.123-1.206-3.176-1.827a2.221,2.221,0,0,1-.951-3.391q2.036-3.583,4.122-7.139a2.212,2.212,0,0,1,3.407-.9c1.093.609,2.185,1.223,3.256,1.87a.8.8,0,0,0,1.116-.087,19.685,19.685,0,0,1,6.464-3.736.8.8,0,0,0,.628-.928c-.032-1.314-.028-2.629,0-3.943a2.158,2.158,0,0,1,2.314-2.283q4.264-.03,8.528,0a2.2,2.2,0,0,1,2.344,2.37q.047,1.924,0,3.851a.8.8,0,0,0,.621.933,20.053,20.053,0,0,1,6.465,3.739.808.808,0,0,0,1.12.089c1.093-.67,2.208-1.306,3.33-1.926a2.171,2.171,0,0,1,3.269.884q2.133,3.633,4.211,7.3a2.186,2.186,0,0,1-.854,3.218c-1.044.634-2.09,1.27-3.179,1.819a1.01,1.01,0,0,0-.639,1.359A11.687,11.687,0,0,1-506.1,930.81Z" transform="translate(553.274 -905.708)" fill="#fff" fill-rule="evenodd"/>
  <path id="Path_29" data-name="Path 29" d="M-427.535,1016.658c.016-.3.025-.567.045-.836a2.155,2.155,0,0,1,2.114-2.118q3.022-.066,6.047,0a2.092,2.092,0,0,1,2.08,2.043c.085,2.474.163,2.359-2.1,2.343q-3.62-.026-7.24,0a5.117,5.117,0,0,0-5.3,5.324q-.019,7.285,0,14.571a7.774,7.774,0,0,0,6.731,7.9,7.8,7.8,0,0,0,8.5-5.443c.208-.606.383-1.224.623-1.817a2.144,2.144,0,0,1,2.595-1.363v1.322c-.976-.1-1.279.538-1.5,1.334a9.793,9.793,0,0,1-3.493,5.551,8.866,8.866,0,0,1-9.659,1.021,8.7,8.7,0,0,1-5.24-8.082c-.11-5.1-.055-10.2-.022-15.3a6.532,6.532,0,0,1,5.173-6.293C-427.976,1016.763-427.772,1016.714-427.535,1016.658Zm8.807-.08c.048-1.273-.088-1.422-1.246-1.425q-2.418-.005-4.836,0c-1.112,0-1.273.2-1.145,1.424Z" transform="translate(462.714 -987.267)" fill="#fff" fill-rule="evenodd"/>
  <path id="Path_30" data-name="Path 30" d="M-278.623,1016.651c.4.1.781.189,1.156.305a6.48,6.48,0,0,1,4.642,6.145c.032,5.071.046,10.142,0,15.213a9.2,9.2,0,0,1-7.506,8.933,9.221,9.221,0,0,1-10.378-5.783,15.8,15.8,0,0,1-.589-1.731c-.189-.736-.527-1.235-1.427-1.125v-1.36a2.168,2.168,0,0,1,2.624,1.459c.27.712.476,1.449.743,2.162a7.736,7.736,0,0,0,8.438,4.99,7.732,7.732,0,0,0,6.626-7.517c.051-5.07.041-10.142,0-15.213a5.071,5.071,0,0,0-5.114-5.043c-2.719-.028-5.438-.006-8.156-.008-1.3,0-1.373-.089-1.393-1.426-.013-.871-.046-1.786.727-2.345a3.238,3.238,0,0,1,1.661-.6c1.738-.077,3.481-.032,5.223-.027,1.839,0,2.572.723,2.668,2.6C-278.673,1016.395-278.645,1016.511-278.623,1016.651Zm-1.6-.079c.127-1.223-.032-1.42-1.145-1.424q-2.418-.008-4.836,0c-1.184,0-1.364.218-1.187,1.425Z" transform="translate(356.449 -987.261)" fill="#fff" fill-rule="evenodd"/>
  <path id="Path_31" data-name="Path 31" d="M-484.454,989.241l.111,1.285c-4.349.793-11.557-1.988-13.346-9.563a12.465,12.465,0,0,1,9.508-14.931c6.417-1.459,13.286,2.722,14.672,9.033l-1.321.4a11.061,11.061,0,0,0-6.731-7.5,10.592,10.592,0,0,0-7.353-.208,11.038,11.038,0,0,0-7.538,11.829A11.209,11.209,0,0,0-484.454,989.241Z" transform="translate(511.531 -951.06)" fill="#fff" fill-rule="evenodd"/>
  <path id="Path_32" data-name="Path 32" d="M-351.756,1021.048c-2.319,0-4.639.005-6.959,0a2.28,2.28,0,0,1-2.584-2.585c0-.824-.018-1.649.005-2.472a2.168,2.168,0,0,1,2.246-2.266q7.279-.032,14.558,0a2.163,2.163,0,0,1,2.257,2.254c.026.854.014,1.709.006,2.564a2.248,2.248,0,0,1-2.478,2.505C-347.056,1021.057-349.406,1021.048-351.756,1021.048Zm-.1-1.467c2.318,0,4.637,0,6.955,0,1.054,0,1.2-.158,1.208-1.234,0-.732-.005-1.464,0-2.2.006-.633-.271-.97-.928-.97q-7.138,0-14.277,0a.827.827,0,0,0-.936.962c.008.671,0,1.342,0,2.013,0,1.336.087,1.425,1.385,1.426Q-355.152,1019.583-351.857,1019.581Z" transform="translate(408.255 -987.294)" fill="#fff" fill-rule="evenodd"/>
  <path id="Path_33" data-name="Path 33" d="M-334.388,958.16c-.147-.015-.238-.028-.329-.032-1.595-.068-2.578-.946-2.537-2.27.04-1.3,1.034-2.124,2.576-2.134.764,0,1.529-.009,2.293,0a2.229,2.229,0,0,1,2.457,2.438c.015,1.8,0,3.607,0,5.41v.921c.366.018.637.018.906.047A2.215,2.215,0,0,1-327,964.756a2.135,2.135,0,0,1-1.992,2.139q-3.115.1-6.234,0a2.145,2.145,0,0,1-2.031-2.2,2.214,2.214,0,0,1,1.983-2.16c.272-.032.548-.027.883-.042Zm2.995,1.414c0-1.131.056-2.266-.033-3.39-.027-.345-.419-.907-.7-.941a14.589,14.589,0,0,0-2.926-.015c-.26.021-.489.429-.732.659.249.255.458.6.761.738a2.155,2.155,0,0,0,1,.027c.884-.072,1.2.342,1.175,1.2-.039,1.344-.01,2.69-.01,4.034,0,1.987,0,1.987-1.99,2.109-.061,0-.147-.023-.18.008-.256.248-.5.507-.752.762.244.23.482.652.732.659q2.931.082,5.866,0c.244-.007.475-.439.712-.675-.255-.249-.471-.588-.777-.722a2.271,2.271,0,0,0-1-.026c-.812.055-1.184-.282-1.156-1.122C-331.366,961.775-331.393,960.674-331.393,959.574Z" transform="translate(390.086 -941.977)" fill="#fff" fill-rule="evenodd"/>
  <path id="Path_34" data-name="Path 34" d="M-274.4,958.1c-.328-.015-.6-.011-.876-.043a2.218,2.218,0,0,1-1.989-2.248,2.168,2.168,0,0,1,2.025-2.112,28.381,28.381,0,0,1,3.3,0,2.156,2.156,0,0,1,2,2.318c.02,1.834.006,3.668.006,5.5v.923c.364.018.636.018.9.047A2.215,2.215,0,0,1-267,964.7a2.156,2.156,0,0,1-2.081,2.151c-2.016.051-4.035.048-6.051,0a2.163,2.163,0,0,1-2.124-2.2,2.208,2.208,0,0,1,2.073-2.168c.242-.022.487,0,.793,0Zm3,1.481c0-1.161.056-2.327-.035-3.482a1.23,1.23,0,0,0-.729-.91,14.608,14.608,0,0,0-2.926-.006.959.959,0,0,0-.647.689c0,.24.37.588.652.7A2.67,2.67,0,0,0-274,956.6c.831-.057,1.16.32,1.138,1.141-.033,1.252.013,2.507-.016,3.759a4.145,4.145,0,0,1-.252,2.1c-.261.368-1.231.184-1.85.366-.311.091-.544.448-.812.685.255.25.5.707.766.715q2.885.092,5.774,0c.264-.008.513-.464.769-.712a3.711,3.711,0,0,0-.81-.691,2.44,2.44,0,0,0-.907-.027c-1.051-.012-1.2-.161-1.2-1.245C-271.4,961.655-271.4,960.616-271.4,959.576Z" transform="translate(344.765 -941.923)" fill="#fff" fill-rule="evenodd"/>
  <path id="Path_35" data-name="Path 35" d="M-303,912.391a18.9,18.9,0,0,1-.186,2.458,5.084,5.084,0,0,1-5.5,4.085,5.156,5.156,0,0,1-4.634-5.062c-.021-1.038-.025-2.078,0-3.116a5.133,5.133,0,0,1,5.164-5,5.139,5.139,0,0,1,5.091,4.986c.018.549,0,1.1,0,1.65Zm-1.523-.032c0-.549.023-1.1,0-1.646a3.669,3.669,0,0,0-3.651-3.494,3.651,3.651,0,0,0-3.661,3.478c-.047,1.1-.045,2.2,0,3.292a3.655,3.655,0,0,0,3.646,3.5A3.673,3.673,0,0,0-304.525,914C-304.5,913.458-304.521,912.908-304.521,912.359Z" transform="translate(372.012 -905.741)" fill="#fff" fill-rule="evenodd"/>
  <path id="Path_36" data-name="Path 36" d="M-243.084,912.37c0,.58.025,1.162-.005,1.741a5.142,5.142,0,0,1-5.142,4.839,5.131,5.131,0,0,1-5.1-4.879c-.045-1.129-.04-2.262,0-3.391a5.131,5.131,0,0,1,5.052-4.929,5.139,5.139,0,0,1,5.2,4.878C-243.06,911.208-243.083,911.79-243.084,912.37Zm-8.79-.058c0,.549-.02,1.1,0,1.646a3.671,3.671,0,0,0,3.621,3.525,3.651,3.651,0,0,0,3.69-3.449c.054-1.126.056-2.258,0-3.383a3.647,3.647,0,0,0-3.7-3.433,3.668,3.668,0,0,0-3.6,3.448C-251.9,911.213-251.871,911.763-251.874,912.312Z" transform="translate(326.711 -905.74)" fill="#fff" fill-rule="evenodd"/>
  <path id="Path_37" data-name="Path 37" d="M-333,1090.921a5.149,5.149,0,0,1-5.193,5.073,5.149,5.149,0,0,1-5.071-5.194,5.147,5.147,0,0,1,5.193-5.071A5.146,5.146,0,0,1-333,1090.921Zm-1.467-.054a3.678,3.678,0,0,0-3.659-3.671,3.674,3.674,0,0,0-3.671,3.658,3.678,3.678,0,0,0,3.658,3.673A3.681,3.681,0,0,0-334.472,1090.867Z" transform="translate(394.629 -1041.701)" fill="#fff" fill-rule="evenodd"/>
  <path id="Path_38" data-name="Path 38" d="M-409.242,1054.879a2.148,2.148,0,0,1,1.867-2.157c.687-.095,1.009-.33,1.1-1.055a2.15,2.15,0,0,1,2.2-1.919,2.136,2.136,0,0,1,2.117,1.909c.092.72.4.969,1.094,1.063a2.151,2.151,0,0,1,1.875,2.149,2.14,2.14,0,0,1-1.863,2.158c-.758.1-1.017.418-1.118,1.148a2.144,2.144,0,0,1-2.189,1.83,2.127,2.127,0,0,1-2.1-1.822c-.1-.806-.435-1.066-1.2-1.172A2.125,2.125,0,0,1-409.242,1054.879Zm5.1-4.013c-.342.555-.641.839-.694,1.163a2.355,2.355,0,0,1-2.15,2.142c-.294.051-.527.462-.788.708.261.245.486.634.789.71a2.349,2.349,0,0,1,2.153,2.133c.074.308.451.543.689.812.253-.252.681-.476.727-.763a2.379,2.379,0,0,1,2.208-2.192c.28-.044.5-.485.744-.743-.244-.23-.464-.62-.737-.662a2.351,2.351,0,0,1-2.206-2.186C-403.449,1051.673-403.775,1051.4-404.137,1050.866Z" transform="translate(444.467 -1014.521)" fill="#fff" fill-rule="evenodd"/>
  <path id="Path_39" data-name="Path 39" d="M-259.339,1054.222a1.476,1.476,0,0,1-1.471,1.449,1.472,1.472,0,0,1-1.448-1.471,1.469,1.469,0,0,1,1.47-1.449A1.473,1.473,0,0,1-259.339,1054.222Z" transform="translate(333.431 -1016.79)" fill="#fff" fill-rule="evenodd"/>
  <path id="Path_40" data-name="Path 40" d="M-272.731,1064.744a1.479,1.479,0,0,1,1.388,1.531,1.484,1.484,0,0,1-1.532,1.389,1.481,1.481,0,0,1-1.387-1.532A1.475,1.475,0,0,1-272.731,1064.744Z" transform="translate(342.5 -1025.848)" fill="#fff" fill-rule="evenodd"/>
  <path id="Path_41" data-name="Path 41" d="M-247.346,1066.275a1.484,1.484,0,0,1-1.532,1.389,1.481,1.481,0,0,1-1.387-1.532,1.475,1.475,0,0,1,1.53-1.388A1.48,1.48,0,0,1-247.346,1066.275Z" transform="translate(324.372 -1025.848)" fill="#fff" fill-rule="evenodd"/>
  <path id="Path_42" data-name="Path 42" d="M-260.786,1076.749a1.473,1.473,0,0,1,1.446,1.473,1.477,1.477,0,0,1-1.474,1.447,1.473,1.473,0,0,1-1.445-1.475A1.47,1.47,0,0,1-260.786,1076.749Z" transform="translate(333.431 -1034.918)" fill="#fff" fill-rule="evenodd"/>
  <path id="Path_43" data-name="Path 43" d="M-346.112,1075.269v-1.36h2.821v1.36Z" transform="translate(396.777 -1032.773)" fill="#fff" fill-rule="evenodd"/>
  <path id="Path_44" data-name="Path 44" d="M-310.127,1075.33v-1.357h2.841v1.357Z" transform="translate(369.592 -1032.821)" fill="#fff" fill-rule="evenodd"/>
  <path id="Path_45" data-name="Path 45" d="M-296.944,921.478c0,.487.024.976,0,1.461a2.2,2.2,0,0,1-2.174,2.149,2.183,2.183,0,0,1-2.2-2.116c-.045-1.033-.047-2.072,0-3.1a2.182,2.182,0,0,1,2.213-2.1,2.194,2.194,0,0,1,2.155,2.069c.04.545.007,1.1.007,1.643Zm-2.923-.146a6.417,6.417,0,0,0,.034,1.54c.074.291.479.5.735.744.228-.242.633-.469.654-.728a16.834,16.834,0,0,0,0-2.908c-.025-.267-.477-.494-.733-.739-.229.242-.583.451-.657.734A5.526,5.526,0,0,0-299.866,921.332Z" transform="translate(362.967 -914.817)" fill="#fff" fill-rule="evenodd"/>
  <path id="Path_46" data-name="Path 46" d="M-236.957,921.441c0,.518.03,1.037-.006,1.552a2.2,2.2,0,0,1-2.223,2.1,2.182,2.182,0,0,1-2.145-2.078c-.05-1.063-.054-2.133,0-3.2a2.175,2.175,0,0,1,2.171-2.048,2.189,2.189,0,0,1,2.19,2.031c.046.544.008,1.1.008,1.643Zm-1.463-.048a5.138,5.138,0,0,0-.03-1.357c-.087-.305-.45-.533-.69-.8-.246.256-.679.494-.705.77a15.011,15.011,0,0,0,0,2.817c.027.282.447.527.687.788.246-.255.627-.475.707-.774A5.807,5.807,0,0,0-238.42,921.393Z" transform="translate(317.651 -914.818)" fill="#fff" fill-rule="evenodd"/>
</svg>
