<svg xmlns="http://www.w3.org/2000/svg" width="35.449" height="49.83" viewBox="0 0 35.449 49.83">
  <g id="Group_53" data-name="Group 53" transform="translate(-199.025 -5.007)">
    <g id="Group_13" data-name="Group 13" transform="translate(199.025 5.007)">
      <path id="Path_26" data-name="Path 26" d="M-460.535,1428.686h12.945a1.3,1.3,0,0,1,.691,1.323c-.034,1.263,0,2.528-.012,3.793a.994.994,0,0,1-1.11,1.113c-.4,0-.8,0-1.192,0v37.373c.4,0,.773,0,1.144,0,.8.008,1.155.36,1.159,1.16,0,1.25-.023,2.5.011,3.746a1.305,1.305,0,0,1-.691,1.323h-34.064a1.19,1.19,0,0,1-.686-1.079c.015-1.363,0-2.724.008-4.085a.978.978,0,0,1,1.059-1.063c.414-.009.83,0,1.24,0v-37.372c-.4,0-.773,0-1.143,0-.8-.007-1.157-.361-1.159-1.161,0-1.248.023-2.5-.012-3.744a1.3,1.3,0,0,1,.693-1.323h12.944a1.274,1.274,0,0,0,.108.092.985.985,0,0,1,.537,1.13,1,1,0,0,1-1.08.723q-5.327,0-10.653,0h-.552v2.311h31.462v-2.311h-4.306c-2.318,0-4.637,0-6.957,0a.986.986,0,0,1-1.03-.722.986.986,0,0,1,.492-1.113C-460.634,1428.761-460.586,1428.724-460.535,1428.686Zm-11.171,17.327a.622.622,0,0,0,.119-.021,7.464,7.464,0,0,1,7.668.513,5.451,5.451,0,0,0,3.664.856,3.885,3.885,0,0,0,2.436-.967,11.976,11.976,0,0,0,1.4-1.807,5.906,5.906,0,0,0,.377-6.27,5.781,5.781,0,0,0-5.193-3.377c-2.25-.086-4.509-.061-6.761-.009a6.21,6.21,0,0,0-5.886,5.689A6.95,6.95,0,0,0-471.706,1446.013Zm20.48,26.263v-37.33h-4.948a1.322,1.322,0,0,0,.1.147,8.145,8.145,0,0,1,.694,11.366q-2.267,2.889-4.518,5.791a1.84,1.84,0,0,0,0,2.708c1.6,2.059,3.239,4.1,4.806,6.181a8.118,8.118,0,0,1-.844,10.842c-.081.082-.151.173-.258.3Zm-26.791-37.347v37.331h4.948a1.32,1.32,0,0,0-.1-.147,8.139,8.139,0,0,1-.695-11.365q2.247-2.874,4.489-5.751a1.87,1.87,0,0,0,0-2.787c-1.6-2.046-3.217-4.072-4.777-6.144a8.121,8.121,0,0,1,.842-10.843c.081-.079.151-.171.258-.293Zm29.141,39.341h-31.488v2.274h31.488Zm-23.48-4.1a5.942,5.942,0,0,0,4.521,2.108c2.138.034,4.279.024,6.418,0a6.578,6.578,0,0,0,1.581-.233,5.6,5.6,0,0,0,2.934-1.875c-.1-.081-.164-.134-.227-.18q-3.6-2.577-7.186-5.16a.451.451,0,0,0-.634.026q-3.056,2.2-6.122,4.392C-471.492,1469.546-471.91,1469.847-472.357,1470.169Zm-1.04-1.654c2.58-1.85,5.1-3.651,7.607-5.463a.56.56,0,0,0,.187-.4q.018-3.018,0-6.035a.5.5,0,0,0-.174-.346c-.451-.356-.92-.691-1.389-1.038-.194.273-.424.625-.68.954-1.6,2.063-3.233,4.1-4.8,6.185A6.03,6.03,0,0,0-473.4,1468.516Zm17.534-.018c.078-.192.147-.334.194-.483a5.992,5.992,0,0,0-.9-5.623c-.622-.851-1.289-1.668-1.935-2.5-1.217-1.566-2.436-3.132-3.612-4.643-.4.317-.83.633-1.231.978a.762.762,0,0,0-.286.463c-.018,1.963-.022,3.925,0,5.887a.838.838,0,0,0,.32.569c1.674,1.225,3.365,2.426,5.052,3.634Zm-14.614-20.883c.1.14.153.22.213.3q2.373,3.045,4.75,6.089c.609.777,1.183.77,1.8-.02q1.274-1.626,2.539-3.256l1.114-1.43a8.754,8.754,0,0,1-5.6-1.53A5.2,5.2,0,0,0-470.477,1447.614Z" transform="translate(482.347 -1428.686)" fill="#323277" fill-rule="evenodd"/>
      <path id="Path_27" data-name="Path 27" d="M-467.293,1428.686c.078.053.155.107.231.163a.918.918,0,0,1,.4,1.093.91.91,0,0,1-.943.682.911.911,0,0,1-.9-.682.924.924,0,0,1,.4-1.094c.075-.056.154-.108.231-.161Z" transform="translate(485.31 -1428.686)" fill="#323277" fill-rule="evenodd"/>
    </g>
  </g>
</svg>
