<svg xmlns="http://www.w3.org/2000/svg" width="58.994" height="48.813" viewBox="0 0 58.994 48.813">
  <g id="Icon_feather-users" data-name="Icon feather-users" transform="translate(1.5 1.5)">
    <path id="Path_22" data-name="Path 22" d="M42.223,37.771v-5.09A10.181,10.181,0,0,0,32.042,22.5H11.681A10.181,10.181,0,0,0,1.5,32.681v5.09" transform="translate(-1.5 8.042)" fill="none" stroke="#404040" stroke-linecap="round" stroke-linejoin="round" stroke-width="3"/>
    <path id="Path_23" data-name="Path 23" d="M27.861,14.681A10.181,10.181,0,1,1,17.681,4.5,10.181,10.181,0,0,1,27.861,14.681Z" transform="translate(2.681 -4.5)" fill="none" stroke="#404040" stroke-linecap="round" stroke-linejoin="round" stroke-width="3"/>
    <path id="Path_24" data-name="Path 24" d="M37.636,37.635v-5.09A10.181,10.181,0,0,0,30,22.7" transform="translate(18.358 8.178)" fill="none" stroke="#404040" stroke-linecap="round" stroke-linejoin="round" stroke-width="3"/>
    <path id="Path_25" data-name="Path 25" d="M24,4.7A10.181,10.181,0,0,1,24,24.42" transform="translate(14.178 -4.364)" fill="none" stroke="#404040" stroke-linecap="round" stroke-linejoin="round" stroke-width="3"/>
  </g>
</svg>
