<svg xmlns="http://www.w3.org/2000/svg" width="26" height="25.993" viewBox="0 0 26 25.993">
  <g id="Group_6" data-name="Group 6" transform="translate(210.851 -1053.36)">
    <path id="Path_13" data-name="Path 13" d="M-182.659,1059.523a10.112,10.112,0,0,1-4.9,1.931,17.546,17.546,0,0,1-7.9-.491,8.129,8.129,0,0,1-2.8-1.447c0,.24.009.42,0,.6a.519.519,0,0,1-.511.524.5.5,0,0,1-.52-.512c-.009-.931-.023-1.863.01-2.793a2.314,2.314,0,0,1,.713-1.492,6.606,6.606,0,0,1,2.849-1.681,17.242,17.242,0,0,1,7.247-.691,13.3,13.3,0,0,1,4.225,1.068,5.827,5.827,0,0,1,1.867,1.27,2.659,2.659,0,0,1,.763,1.9q-.016,6.545,0,13.09a2.782,2.782,0,0,1-1,2.194,7.69,7.69,0,0,1-3.379,1.649c-.91.223-1.846.347-2.776.485-.414.062-.656-.136-.678-.463s.193-.531.605-.57a12.505,12.505,0,0,0,4.376-1.113,6.356,6.356,0,0,0,.807-.479,2.069,2.069,0,0,0,1.01-1.933c-.063-1.285-.017-2.576-.017-3.864v-.371a8.011,8.011,0,0,1-2.959,1.469c-.938.25-1.9.428-2.849.62a.534.534,0,0,1-.679-.437c-.045-.3.168-.536.543-.593a13.157,13.157,0,0,0,3.867-1.048,9.321,9.321,0,0,0,1.589-1.042,1.393,1.393,0,0,0,.494-1.182c-.017-1.408-.006-2.816-.006-4.223Zm-7.93,1.119a16.444,16.444,0,0,0,4.362-.53,6.916,6.916,0,0,0,2.97-1.461,1.368,1.368,0,0,0,0-2.26,3.512,3.512,0,0,0-.727-.54,9.6,9.6,0,0,0-1.47-.672,16.308,16.308,0,0,0-9.525-.161,6.237,6.237,0,0,0-2.663,1.361,1.35,1.35,0,0,0,.009,2.272,6.851,6.851,0,0,0,1.651,1A13.942,13.942,0,0,0-190.589,1060.642Z" transform="translate(-3.24)" fill-rule="evenodd"/>
    <path id="Path_14" data-name="Path 14" d="M-202.043,1082.6a8.841,8.841,0,0,1-8.808-8.875,8.844,8.844,0,0,1,8.818-8.8,8.839,8.839,0,0,1,8.856,8.858A8.841,8.841,0,0,1-202.043,1082.6Zm-7.767-8.824a7.8,7.8,0,0,0,7.761,7.785,7.8,7.8,0,0,0,7.834-7.811,7.8,7.8,0,0,0-7.795-7.784A7.8,7.8,0,0,0-209.811,1073.773Z" transform="translate(0 -3.243)" fill-rule="evenodd"/>
    <path id="Path_15" data-name="Path 15" d="M-195.716,1075.133c0,.758-.007,1.515,0,2.272a.677.677,0,0,1-.376.658q-1.957,1.121-3.9,2.257a.725.725,0,0,1-.816-.008q-1.929-1.133-3.873-2.241a.7.7,0,0,1-.4-.678q.014-2.255,0-4.513a.7.7,0,0,1,.391-.681q1.959-1.115,3.9-2.254a.679.679,0,0,1,.756-.012q1.975,1.152,3.961,2.285a.634.634,0,0,1,.35.607C-195.72,1073.6-195.716,1074.365-195.716,1075.133Zm-1.479-2.36c-1.047-.606-2.055-1.192-3.068-1.768a.314.314,0,0,0-.263,0c-1.012.576-2.018,1.16-3.064,1.764.68.391,1.325.763,1.971,1.134.4.23.809.64,1.212.637s.832-.405,1.244-.639C-198.516,1073.537-197.873,1073.163-197.2,1072.772Zm-6.8.977a.642.642,0,0,0-.033.121c0,1.061-.009,2.123.007,3.183a.458.458,0,0,0,.222.3c.874.52,1.756,1.025,2.637,1.533.071.041.148.068.249.114,0-1.128.006-2.221-.009-3.313a.426.426,0,0,0-.2-.281c-.668-.4-1.346-.785-2.02-1.174C-203.425,1074.073-203.7,1073.917-204,1073.75Zm7.241.044c-.05,0-.075-.016-.089-.008-.966.554-1.933,1.106-2.893,1.672a.388.388,0,0,0-.131.29c-.012.7-.006,1.407-.006,2.111v1.175c.878-.507,1.683-1.015,2.527-1.445a.957.957,0,0,0,.607-1.049C-196.793,1075.627-196.755,1074.707-196.755,1073.793Z" transform="translate(-1.619 -4.618)" fill-rule="evenodd"/>
  </g>
</svg>
