<svg xmlns="http://www.w3.org/2000/svg" width="61" height="61" viewBox="0 0 61 61">
  <g id="Group_55" data-name="Group 55" transform="translate(1018 -278)">
    <circle id="Ellipse_4" data-name="Ellipse 4" cx="30.5" cy="30.5" r="30.5" transform="translate(-1018 278)" fill="#eee"/>
    <path id="Icon_awesome-user-alt" data-name="Icon awesome-user-alt" d="M14.06,15.817A7.909,7.909,0,1,0,6.151,7.909,7.911,7.911,0,0,0,14.06,15.817Zm7.03,1.757H18.064a9.561,9.561,0,0,1-8.008,0H7.03A7.029,7.029,0,0,0,0,24.6v.879A2.637,2.637,0,0,0,2.636,28.12H25.484a2.637,2.637,0,0,0,2.636-2.636V24.6A7.029,7.029,0,0,0,21.09,17.575Z" transform="translate(-1001 294)" fill="#856ac0"/>
  </g>
</svg>
