<?xml version="1.0" standalone="no"?>
<!DOCTYPE svg PUBLIC "-//W3C//DTD SVG 20010904//EN"
 "http://www.w3.org/TR/2001/REC-SVG-20010904/DTD/svg10.dtd">
<svg version="1.0" xmlns="http://www.w3.org/2000/svg"
 width="1920.000000pt" height="1080.000000pt" viewBox="0 0 1920.000000 1080.000000"
 preserveAspectRatio="xMidYMid meet">
<metadata>
Created by potrace 1.16, written by Peter Selinger 2001-2019
</metadata>
<g transform="translate(0.000000,1080.000000) scale(0.100000,-0.100000)"
fill="#000000" stroke="none">
<path d="M0 5400 l0 -5400 9600 0 9600 0 0 5400 0 5400 -9600 0 -9600 0 0
-5400z m9980 4708 c60 -36 82 -183 38 -248 -13 -17 -36 -39 -53 -49 -16 -9
-34 -22 -38 -28 -4 -7 -14 -13 -22 -13 -19 0 -84 -77 -125 -149 -55 -98 -67
-110 -97 -105 -61 11 -143 67 -143 98 0 36 48 164 92 246 94 174 132 213 242
251 53 18 72 18 106 -3z m373 -1047 c301 -113 316 -119 373 -166 86 -69 217
-216 238 -266 10 -24 31 -71 47 -104 16 -33 29 -65 29 -71 0 -6 15 -49 33 -95
75 -188 96 -327 71 -479 -7 -47 -14 -124 -14 -172 0 -89 -11 -133 -37 -142 -8
-4 -40 1 -71 10 -131 38 -243 14 -329 -73 -70 -69 -53 -93 66 -93 88 0 103
-12 120 -101 29 -140 86 -319 132 -414 32 -66 60 -97 130 -149 26 -20 67 -67
96 -112 35 -53 68 -90 100 -111 45 -30 55 -33 128 -33 106 0 128 -14 180 -116
38 -75 40 -84 45 -194 6 -135 12 -148 104 -246 69 -73 83 -104 87 -189 4 -121
4 -122 -65 -193 -68 -72 -86 -99 -86 -131 0 -11 21 -70 46 -132 25 -61 46
-120 47 -130 1 -11 6 -19 12 -19 15 -1 55 -36 55 -49 0 -6 -9 -2 -20 9 -20 20
-47 19 -34 -2 4 -5 9 -27 11 -47 3 -20 6 -45 8 -56 2 -11 4 -26 4 -33 1 -10 4
-10 15 0 8 7 12 15 10 17 -2 2 4 10 13 16 15 11 16 15 3 31 -12 14 -12 16 -1
9 11 -7 13 -2 8 25 -6 28 -5 31 8 20 42 -35 31 -132 -24 -200 -25 -31 -31 -50
-41 -136 -6 -54 -14 -110 -17 -124 -3 -14 -7 -36 -8 -50 -2 -14 -7 -46 -13
-72 -10 -49 -6 -58 16 -36 6 6 15 9 19 5 3 -4 -2 -14 -13 -23 -10 -8 -13 -13
-6 -9 7 4 12 0 12 -10 0 -10 -5 -14 -12 -10 -7 4 -4 -1 6 -9 12 -10 15 -16 7
-16 -7 0 -11 -6 -8 -12 2 -7 9 -13 16 -13 7 0 18 -7 24 -16 8 -11 18 -14 32
-8 19 7 18 10 -4 13 -5 0 -12 4 -16 8 -9 9 16 5 33 -5 6 -5 18 -5 25 -2 6 3 4
0 -6 -7 -49 -34 -47 -37 8 -8 33 18 76 50 95 73 19 22 29 37 22 33 -8 -5 -17
2 -25 22 -6 16 -15 29 -20 30 -4 0 -11 2 -15 5 -4 2 -1 2 6 0 9 -2 11 3 7 18
-6 18 -4 19 13 10 15 -8 24 -6 41 10 23 22 29 15 7 -10 -12 -14 -11 -19 4 -34
17 -18 18 -17 30 17 6 20 12 57 12 83 l0 47 19 -24 c26 -33 21 -133 -10 -185
-11 -20 -21 -49 -21 -64 0 -42 -26 -118 -55 -162 l-25 -39 27 -11 c16 -6 40
-23 55 -40 27 -29 48 -38 48 -19 0 6 8 10 18 10 12 0 14 -2 4 -8 -10 -7 -9
-14 6 -33 21 -28 45 -98 40 -119 -5 -25 185 -23 235 2 48 24 130 106 123 124
-3 7 5 20 17 29 14 10 17 15 7 15 -10 0 -8 6 7 18 21 16 28 43 24 101 -1 18
-5 22 -18 16 -14 -5 -15 -3 -6 6 25 26 65 -40 66 -110 1 -80 -72 -187 -169
-248 -24 -16 -44 -35 -44 -44 0 -9 -8 -27 -19 -40 l-18 -24 62 0 c48 0 68 -5
84 -19 24 -22 28 -73 9 -99 -16 -20 -123 -68 -133 -59 -10 10 -29 9 -37 -3 -4
-5 -8 -26 -8 -46 0 -27 -7 -42 -29 -62 -16 -14 -33 -23 -38 -19 -4 4 -2 0 5
-8 14 -17 16 -64 2 -89 -13 -26 -57 -41 -126 -44 -93 -5 -165 40 -132 81 10
12 10 14 1 8 -24 -14 -13 12 15 36 21 18 26 30 24 55 -2 17 -11 37 -20 44 -14
11 -15 11 -5 -1 9 -10 10 -17 2 -27 -12 -14 -33 -18 -25 -4 3 4 -6 6 -20 3
-21 -4 -24 -9 -19 -26 19 -59 19 -70 0 -62 -13 5 -15 3 -8 -6 11 -16 11 -38
-1 -37 -5 0 -12 -4 -15 -10 -4 -5 -22 -17 -41 -25 l-35 -15 35 -14 c94 -40
235 -46 328 -14 35 12 46 11 41 -5 0 -2 4 -15 10 -29 9 -26 8 -27 -51 -44 -78
-22 -207 -22 -279 -2 -60 18 -146 69 -155 92 -8 21 -14 20 -80 -20 -33 -20
-86 -44 -119 -54 -51 -16 -60 -22 -67 -49 -18 -68 -179 -93 -251 -38 -23 18
-31 64 -16 83 16 18 89 58 109 58 8 1 21 5 29 9 10 7 12 5 6 -4 -6 -10 6 -12
61 -7 74 6 160 34 209 68 l30 21 -30 -7 c-29 -6 -29 -6 -8 9 21 16 25 38 8 53
-4 4 -5 2 -1 -4 4 -7 3 -13 -3 -13 -11 0 -26 38 -23 60 1 10 0 11 -4 2 -4 -9
-10 -10 -19 -2 -18 15 -43 -16 -26 -33 10 -9 11 -8 6 8 -6 20 -6 20 9 1 8 -10
12 -24 9 -30 -4 -6 0 -5 9 2 13 10 17 10 21 -3 4 -10 -2 -17 -18 -21 -14 -3
-22 -10 -19 -15 5 -8 -3 -11 -22 -8 -4 0 -11 -5 -15 -13 -7 -10 -9 -10 -9 -1
0 7 -3 12 -7 12 -23 -4 -43 2 -40 13 1 7 -14 12 -39 13 -34 1 -41 -2 -36 -15
3 -8 2 -12 -3 -8 -4 4 -14 1 -22 -7 -8 -8 -23 -15 -34 -15 -12 0 -35 -14 -52
-32 -18 -17 -57 -43 -87 -57 -74 -34 -191 -36 -264 -3 -74 34 -90 30 -104 -22
-15 -56 -62 -111 -109 -127 -47 -15 -133 -6 -188 21 -48 23 -65 20 -65 -10 0
-41 -117 -72 -186 -50 -22 7 -46 19 -55 26 -14 12 -22 12 -60 -2 -24 -9 -78
-18 -119 -20 -41 -2 -95 -9 -119 -15 -48 -11 -86 -6 -142 17 -36 16 -36 16
-90 -25 -74 -56 -147 -83 -245 -89 -68 -4 -87 -1 -124 17 -24 11 -52 21 -62
21 -10 0 -18 6 -18 13 0 8 -3 8 -8 1 -4 -6 -48 -10 -112 -9 -158 2 -251 47
-321 155 -31 47 -33 49 -77 48 -26 0 -48 4 -50 11 -2 6 -8 9 -13 5 -8 -5 -13
10 -10 29 1 5 -2 6 -7 3 -11 -6 -26 4 -41 29 -13 20 -10 8 5 -31 5 -10 0 -17
-15 -21 -12 -3 -18 -10 -14 -17 4 -8 2 -7 -7 1 -7 7 -27 9 -48 6 -25 -4 -33
-3 -28 5 9 16 10 16 -80 -14 -100 -32 -193 -30 -269 6 -27 13 -54 24 -60 24
-5 1 -14 6 -18 11 -5 6 -5 0 -2 -13 5 -18 2 -25 -14 -29 -12 -3 -18 -10 -14
-17 4 -6 0 -5 -9 2 -13 10 -18 10 -24 1 -4 -8 -3 -9 4 -5 7 4 12 3 12 -2 0
-13 -24 -18 -90 -20 -38 -1 -49 1 -35 7 11 5 23 7 28 4 4 -2 7 1 7 7 0 7 -7
10 -15 7 -8 -4 -17 -2 -20 3 -4 6 -18 10 -32 10 -21 0 -24 2 -13 15 7 8 11 15
9 16 -38 8 -40 7 -28 -7 6 -8 8 -14 4 -14 -4 0 -2 -7 5 -15 11 -13 10 -14 -2
-10 -14 6 -38 45 -44 72 -1 7 4 17 12 24 8 6 14 8 14 3 0 -5 5 -2 11 6 9 12
10 11 6 -8 -3 -12 -1 -20 4 -16 5 3 9 15 9 27 0 17 2 19 9 7 6 -8 8 -17 5 -21
-2 -4 -1 -10 4 -13 6 -4 9 49 3 62 0 1 -12 -5 -25 -13 -13 -9 -30 -14 -37 -13
-7 2 -13 -4 -14 -12 0 -8 -9 -15 -20 -15 -16 0 -20 -7 -20 -35 0 -40 -9 -54
-83 -128 -35 -35 -80 -66 -129 -90 -72 -34 -83 -36 -177 -36 -117 0 -148 6
-176 36 -35 38 -19 99 30 110 8 2 18 6 21 11 6 9 46 19 73 18 17 0 17 1 0 20
-10 11 -19 25 -20 32 -1 7 -5 21 -10 32 -5 14 -4 17 4 10 6 -6 13 -20 15 -31
4 -31 45 -77 70 -81 32 -5 72 -37 75 -61 3 -20 5 -20 40 -5 50 21 162 100 162
114 0 3 -34 3 -76 1 -53 -3 -75 -1 -70 6 4 6 13 9 20 6 18 -7 30 12 15 22 -8
4 -9 3 -5 -4 4 -7 3 -12 -3 -12 -5 0 -12 6 -15 13 -3 8 -9 7 -20 -7 -9 -11
-22 -16 -31 -12 -19 7 -44 63 -40 88 5 22 3 22 -41 3 -24 -10 -33 -11 -27 -2
4 8 1 7 -10 -1 -9 -8 -20 -11 -26 -8 -5 3 -12 -1 -15 -10 -5 -12 -9 -14 -20
-5 -11 9 -13 4 -11 -29 1 -23 0 -38 -3 -35 -7 7 -12 31 -14 73 -2 27 -4 31
-13 19 -9 -13 -15 -13 -43 -1 -18 7 -40 26 -49 42 -9 16 -29 36 -44 44 l-27
16 -6 -45 c-8 -60 -42 -119 -84 -145 -27 -16 -36 -18 -45 -8 -9 10 -9 11 2 5
11 -6 13 -4 8 8 -4 10 -2 16 6 14 7 -1 11 6 11 15 -1 10 2 16 6 13 11 -7 26
42 29 97 5 102 -37 226 -108 316 -39 49 -120 100 -165 104 -39 3 -15 19 37 25
34 4 57 0 91 -17 51 -24 138 -114 165 -169 9 -20 22 -35 29 -34 6 2 9 -3 6
-10 -3 -8 2 -14 11 -14 9 0 14 6 11 12 -2 6 2 12 10 12 7 0 11 -3 10 -6 -2 -3
18 -7 45 -9 27 -1 61 -7 76 -13 24 -9 30 -7 45 11 9 11 19 16 22 11 4 -5 1
-12 -4 -14 -6 -3 -5 -4 2 -3 7 2 12 9 11 15 -2 6 1 11 5 11 5 0 17 7 28 15 10
8 15 15 9 14 -28 -4 -43 3 -55 26 -7 13 -17 22 -21 19 -4 -2 -13 6 -19 18 -11
22 -10 22 4 4 9 -11 16 -18 17 -15 0 2 2 15 5 29 2 14 1 21 -3 15 -5 -5 -33
-11 -64 -13 -44 -2 -58 1 -63 13 -5 13 -9 13 -25 3 -15 -9 -17 -15 -9 -25 6
-7 7 -13 3 -13 -4 0 -1 -8 6 -17 13 -16 12 -17 -3 -4 -10 7 -16 17 -13 21 3 5
1 11 -4 15 -5 3 -8 14 -6 25 2 12 -1 17 -9 14 -20 -8 -38 22 -34 57 2 25 11
38 36 52 38 22 162 36 162 19 0 -6 7 -9 15 -6 18 7 65 -39 65 -64 0 -11 -9
-31 -20 -45 -15 -18 -17 -28 -9 -33 7 -4 9 -3 6 3 -10 17 44 36 107 38 71 3
92 21 71 62 -14 26 -10 52 9 66 14 9 -14 29 -31 22 -7 -2 -13 0 -13 5 0 12
-22 9 -32 -5 -5 -7 -8 -7 -8 0 0 6 -14 10 -30 11 -60 2 -92 62 -63 119 l15 30
-20 -22 c-58 -60 -226 -62 -274 -2 -19 23 -25 75 -8 64 6 -3 13 1 16 9 3 9 11
13 18 9 6 -3 7 -2 3 3 -10 11 -68 14 -61 3 13 -22 -55 6 -78 31 -33 36 -34 49
-8 83 13 17 17 28 10 32 -20 12 -31 56 -19 71 24 29 142 9 235 -39 20 -10 36
-12 52 -6 l23 9 -27 23 c-19 16 -28 35 -29 57 -2 47 39 70 126 70 76 0 102 17
81 51 -18 28 -15 62 8 87 24 26 25 64 4 123 -22 62 -62 245 -65 301 -2 27 2
53 7 58 6 6 50 15 98 20 91 9 142 31 171 73 21 30 19 120 -2 160 -15 27 -18
60 -19 207 0 141 -4 186 -18 228 -23 67 -17 94 34 179 34 57 40 75 40 122 0
61 51 231 76 251 8 7 14 18 14 24 0 6 18 36 40 66 75 102 215 283 233 301 21
23 51 24 108 4 112 -40 253 -49 342 -21 103 31 197 135 197 216 0 16 -16 59
-36 97 -33 62 -37 78 -45 188 -13 167 -12 267 2 328 11 50 9 59 -21 147 -39
113 -37 144 17 250 41 80 42 81 181 141 69 30 133 99 161 173 41 109 59 135
145 197 48 36 79 36 156 4 33 -14 75 -25 94 -25 55 0 146 38 205 86 48 40 70
49 152 68 84 19 271 200 377 365 30 47 62 92 70 99 22 17 54 15 115 -7z m1264
-878 c24 -27 50 -63 58 -81 32 -65 49 -174 49 -317 1 -171 -7 -190 -81 -200
-27 -3 -58 -8 -69 -10 -44 -9 -63 22 -83 142 -18 110 -44 177 -81 218 -41 44
-67 163 -40 180 6 3 10 14 10 23 1 29 66 94 102 101 52 11 89 -4 135 -56z
m-3042 -827 c20 -30 30 -87 21 -120 -4 -15 -35 -48 -76 -81 -47 -38 -81 -75
-102 -112 -17 -30 -37 -57 -45 -60 -19 -8 -71 16 -88 41 -24 33 -18 56 39 173
56 114 86 148 151 171 52 18 83 14 100 -12z m-1744 -3262 c28 -25 21 -71 -14
-98 -40 -30 -144 -30 -184 0 -51 38 -36 93 31 114 47 14 144 5 167 -16z m6040
-375 c15 -9 13 -109 -2 -124 -5 -5 -44 -11 -85 -12 -64 -2 -77 1 -98 20 -50
45 -35 89 39 115 33 12 128 13 146 1z m100 -126 c16 -49 5 -125 -27 -192 -37
-76 -152 -189 -227 -224 -107 -50 -216 -46 -268 10 l-24 25 25 -8 c153 -48
369 87 455 286 24 53 27 158 6 186 -8 10 0 4 17 -14 17 -19 36 -50 43 -69z
m-6006 -217 c14 -17 25 -25 25 -17 0 8 2 12 5 9 8 -8 -26 -69 -41 -75 -8 -3
-12 -8 -10 -12 5 -7 -24 -10 -109 -10 -97 -1 -144 52 -94 105 27 28 47 30 66
7 13 -16 13 -16 3 5 -11 23 -11 23 60 21 66 -2 73 -4 95 -33z m5713 -16 c12
-8 22 -19 23 -25 0 -5 2 -20 3 -33 3 -29 -42 -69 -90 -78 -60 -11 -143 0 -165
23 -22 21 -35 93 -18 93 6 0 7 5 4 10 -4 6 -3 10 2 9 14 -4 63 13 59 20 -8 13
159 -5 182 -19z m-4670 -214 c69 -25 252 -6 252 25 0 6 5 7 10 4 6 -3 10 -2
10 3 0 10 19 13 74 12 69 -1 73 -13 18 -49 -78 -50 -156 -73 -244 -73 -73 0
-83 -4 -80 -29 1 -4 -10 -17 -24 -30 -46 -43 -173 -34 -233 17 -25 22 -28 66
-6 88 22 22 93 39 133 32 25 -4 31 -2 24 7 -5 7 -12 21 -16 32 -7 18 -6 18 16
-2 13 -12 42 -29 66 -37z m630 -20 c32 -17 125 -24 167 -13 11 3 28 6 37 6 9
1 24 8 32 17 9 8 16 12 16 8 0 -3 7 -1 15 6 12 10 20 6 45 -21 l30 -33 -25
-13 c-13 -7 -52 -20 -87 -29 -126 -33 -240 2 -287 88 l-24 43 24 -21 c13 -12
39 -29 57 -38z m2144 -901 c195 -34 370 -132 496 -279 41 -48 83 -115 82 -133
-1 -4 -10 8 -20 28 -25 47 -139 160 -207 205 -97 65 -246 126 -343 141 -48 8
-215 9 -236 2 -13 -5 -26 -3 -33 4 -10 9 -12 9 -9 -3 2 -8 -5 -14 -17 -15 -43
-2 -198 -68 -227 -97 -10 -10 -22 -18 -27 -18 -16 0 -167 -154 -185 -188 -9
-17 -20 -32 -25 -32 -5 0 -11 -8 -15 -17 -3 -10 -19 -42 -35 -70 -24 -43 -50
-104 -56 -133 -1 -3 -7 -24 -14 -48 -6 -23 -9 -47 -6 -52 3 -5 1 -18 -4 -27
-9 -15 -10 -13 -11 13 0 63 34 181 80 279 82 172 209 300 375 381 144 69 277
87 437 59z m-1884 -584 c242 -70 459 -255 581 -499 59 -117 92 -236 96 -341 4
-91 4 -92 -5 -29 -8 61 -20 112 -41 163 -4 11 -11 31 -15 45 -17 63 -111 226
-179 309 -41 50 -142 143 -195 179 -87 60 -218 116 -320 138 -51 10 -267 10
-325 0 -27 -5 -61 -9 -75 -10 -14 -1 -30 -6 -37 -12 -7 -7 -29 -15 -50 -19
-47 -9 -206 -92 -290 -152 -64 -46 -163 -139 -163 -153 0 -4 -6 -10 -14 -13
-26 -10 41 77 111 144 139 134 303 218 503 261 115 24 313 19 418 -11z"/>
<path d="M10244 8482 c-38 -38 -74 -85 -74 -97 0 -26 -119 -120 -200 -159 -58
-27 -92 -47 -100 -57 -10 -13 -75 -46 -105 -53 -16 -5 -69 -11 -118 -15 -58
-5 -93 -13 -105 -24 -10 -9 -37 -55 -61 -102 -29 -58 -54 -94 -79 -113 -20
-15 -67 -57 -104 -93 l-68 -65 4 -85 c2 -46 9 -97 16 -114 9 -23 9 -56 -1
-146 -14 -143 -4 -192 39 -184 45 8 109 81 133 152 22 67 61 123 85 123 17 0
17 -14 0 -65 -9 -27 -11 -59 -7 -98 6 -46 3 -67 -12 -102 -19 -44 -19 -45 0
-84 17 -34 18 -47 10 -94 -10 -56 -4 -107 13 -107 11 0 82 -43 115 -70 41 -34
217 -96 293 -104 87 -10 109 -20 167 -75 28 -27 72 -63 98 -80 27 -18 52 -44
58 -58 13 -36 12 -200 -3 -209 -7 -4 -30 13 -57 44 -30 33 -57 53 -78 57 l-31
6 -7 -56 c-4 -31 -5 -77 -1 -103 3 -26 1 -63 -5 -82 -5 -19 -12 -61 -14 -93
-4 -55 -6 -59 -60 -109 -37 -33 -67 -74 -87 -115 -28 -59 -96 -133 -122 -133
-29 0 -146 -166 -146 -208 0 -15 -26 -33 -56 -38 -84 -15 -394 -162 -364 -172
6 -2 35 9 63 24 47 26 61 29 155 30 95 0 104 2 118 23 15 20 45 38 68 39 5 0
13 6 18 14 8 11 9 11 6 0 -2 -8 -6 -12 -10 -10 -3 2 -15 -5 -25 -15 -11 -9
-23 -14 -26 -10 -4 3 -7 -2 -7 -12 0 -10 -3 -15 -7 -12 -3 4 -12 -1 -19 -11
-17 -21 -17 -32 -2 -32 6 0 8 3 5 7 -4 3 11 19 34 36 22 16 43 26 46 23 4 -4
6 -22 5 -40 -2 -31 0 -34 20 -30 18 3 16 1 -7 -10 -16 -9 -24 -15 -17 -16 7 0
11 -4 8 -8 -5 -9 42 -15 55 -6 6 3 5 12 -3 22 -10 12 -10 14 0 8 8 -5 12 1 12
18 0 14 3 25 8 24 4 -1 16 3 27 9 11 6 28 9 37 8 24 -4 32 12 16 33 -11 15
-11 15 2 5 11 -8 22 -8 45 2 29 13 27 16 -14 19 -11 0 -22 4 -26 7 -10 11 50
3 72 -10 12 -6 40 -11 62 -11 45 0 112 -23 153 -53 18 -13 46 -21 85 -22 70
-3 127 -29 171 -79 37 -42 46 -68 38 -110 -8 -43 -30 -62 -89 -78 -40 -10 -57
-10 -107 3 -58 15 -59 15 -48 -5 6 -12 7 -17 2 -13 -4 4 -14 -3 -22 -15 -7
-13 -11 -15 -8 -6 3 10 0 20 -6 24 -6 4 -8 3 -5 -2 3 -6 2 -16 -4 -24 -6 -11
-9 -6 -9 18 0 28 -2 31 -18 23 -49 -26 -211 -34 -313 -16 -23 4 -25 2 -21 -25
2 -17 9 -30 14 -30 5 0 6 6 3 13 -4 6 0 5 7 -3 8 -8 20 -21 28 -29 8 -8 10
-11 4 -8 -7 4 -14 -1 -16 -11 -3 -11 0 -19 8 -19 7 0 11 3 9 7 -2 4 3 7 12 7
12 0 11 -4 -6 -18 -12 -10 -20 -23 -16 -29 5 -8 12 -7 23 2 15 11 15 11 4 -3
-10 -13 -9 -19 3 -29 13 -11 14 -10 9 5 -5 13 -4 16 4 11 7 -4 13 -2 13 3 1 6
2 14 4 19 15 57 16 58 52 60 20 2 41 6 46 9 6 3 7 1 3 -5 -7 -11 6 -17 28 -13
5 1 4 -4 -2 -12 -14 -17 -6 -27 21 -27 14 0 17 3 10 13 -14 17 -24 47 -15 45
4 -1 15 2 25 7 13 5 26 0 44 -16 26 -24 23 -11 -6 26 -9 11 -12 17 -7 13 5 -4
16 -2 25 5 14 11 14 10 2 -5 -7 -10 -9 -18 -4 -18 5 0 16 -12 23 -27 18 -38
21 -54 7 -47 -8 5 -7 2 1 -7 6 -7 12 -32 12 -55 0 -33 5 -47 24 -61 13 -11 34
-35 46 -54 16 -25 21 -28 17 -11 -3 12 -1 20 4 16 12 -7 11 -38 -1 -50 -13
-13 18 -12 39 1 9 5 12 4 7 -3 -3 -6 -2 -13 2 -16 8 -4 9 24 3 68 0 5 -9 2
-18 -5 -17 -13 -17 -13 0 7 9 11 17 27 17 35 0 16 38 53 55 54 6 1 9 7 7 15
-2 8 0 11 4 7 13 -13 13 -38 1 -30 -7 3 -9 2 -5 -2 5 -5 19 -9 33 -11 13 -1
46 -22 71 -46 26 -24 51 -42 58 -40 6 2 7 0 3 -5 -5 -4 -14 -8 -20 -8 -7 0
-11 -9 -9 -19 2 -10 -1 -16 -6 -12 -5 3 -9 -1 -9 -9 0 -22 13 -18 31 9 17 26
39 28 59 6 10 -12 9 -12 -5 -1 -22 16 -22 4 -2 -29 8 -14 13 -17 10 -8 -3 11
0 17 6 15 7 -1 12 3 13 10 0 6 3 15 7 19 7 7 5 -10 -8 -55 -5 -15 -3 -22 3
-18 6 4 18 -2 28 -13 10 -11 15 -20 12 -20 -3 0 5 -12 19 -27 29 -31 53 -38
61 -17 3 8 9 11 14 8 5 -3 6 2 3 11 -4 10 -2 15 6 13 8 -2 19 7 25 19 7 13 15
20 18 17 10 -10 -1 36 -11 50 -10 11 -9 29 2 57 5 10 2 16 -8 16 -8 0 -13 -4
-10 -9 3 -4 0 -8 -6 -8 -6 0 -9 -4 -6 -9 7 -11 -20 -8 -31 3 -4 4 -1 6 7 4 8
-2 14 2 13 9 -2 7 6 17 17 23 11 6 20 16 20 22 0 7 -4 7 -14 -1 -11 -9 -15 -9
-20 1 -3 7 -4 5 -3 -6 1 -12 -5 -20 -18 -22 -11 -1 -35 -6 -53 -9 -96 -18
-239 97 -255 207 -2 12 -9 24 -16 26 -6 2 -11 0 -10 -5 7 -41 0 -45 -65 -41
-70 4 -101 22 -108 63 -6 28 6 53 16 36 4 -6 12 -8 18 -5 7 4 8 2 4 -5 -4 -6
-12 -9 -17 -6 -5 3 -6 -1 -3 -10 5 -12 9 -13 20 -4 12 9 13 9 9 -4 -4 -8 -1
-18 6 -23 8 -5 10 -3 4 7 -6 11 -5 12 6 1 19 -18 98 -16 105 3 4 8 10 12 15 9
5 -3 6 1 3 9 -3 8 0 18 6 22 8 5 7 11 -2 23 -11 13 -11 15 4 10 9 -4 23 1 33
12 15 17 15 18 -2 22 -10 2 13 5 52 6 38 1 91 -5 117 -13 25 -7 49 -11 53 -7
3 4 4 0 1 -8 -3 -9 11 -27 32 -45 24 -20 34 -24 29 -13 -3 10 -2 20 4 23 5 4
8 1 7 -6 -2 -7 9 -13 27 -14 17 -2 32 -4 35 -5 3 -1 8 -2 12 -1 4 0 5 -8 3
-19 -3 -18 -1 -19 17 -9 18 10 19 13 6 20 -22 12 -12 58 13 56 10 -1 19 -6 19
-11 0 -5 3 -6 7 -3 3 4 12 -1 20 -11 9 -10 12 -11 7 -2 -4 8 -14 24 -23 34
-13 16 -13 18 -1 11 17 -10 51 -51 51 -62 1 -4 4 -15 9 -23 11 -23 23 -76 14
-68 -4 4 -14 2 -22 -5 -11 -8 -14 -8 -9 0 4 6 2 15 -4 19 -8 4 -9 3 -5 -4 4
-7 2 -12 -4 -12 -6 0 -9 -4 -5 -9 3 -6 -3 -8 -14 -6 -11 2 -22 -3 -25 -11 -3
-9 -10 -12 -16 -9 -5 3 -10 1 -10 -5 0 -6 -4 -9 -9 -5 -5 3 -12 1 -15 -4 -6
-10 22 -8 62 5 20 6 22 4 14 -17 -11 -30 -5 -49 15 -49 13 0 14 2 2 18 -13 16
-12 16 4 3 16 -13 17 -17 5 -25 -17 -13 -13 -33 10 -45 14 -7 17 -4 18 15 1
15 -2 22 -10 18 -6 -3 -3 1 7 9 24 20 24 21 7 43 -13 17 -13 17 9 -1 14 -11
21 -14 17 -7 -7 12 9 17 48 13 15 -1 16 2 7 12 -8 10 -7 14 4 14 7 0 14 -3 13
-6 -2 -19 3 -31 11 -26 5 3 13 0 17 -6 5 -8 3 -9 -6 -4 -10 6 -11 4 -4 -6 11
-18 14 -39 6 -40 -4 0 -14 -2 -23 -4 -9 -1 -16 3 -16 11 0 10 4 11 14 3 10 -9
13 -8 13 5 0 22 -27 31 -45 16 -12 -10 -13 -16 -3 -28 10 -13 10 -14 1 -8 -8
4 -13 2 -13 -7 0 -19 -23 -38 -49 -40 -12 -1 -22 -9 -22 -19 -1 -10 -2 -24 -3
-30 -2 -20 28 -27 42 -9 11 15 12 15 6 0 -4 -14 2 -16 42 -14 25 2 51 8 57 14
7 7 2 8 -14 4 -20 -6 -22 -4 -12 9 10 11 10 17 0 28 -9 10 -9 11 1 6 8 -5 12
1 12 17 0 14 7 28 16 31 9 3 14 13 11 20 -3 8 2 17 11 21 14 5 14 7 2 15 -8 5
-15 20 -16 34 0 14 3 23 7 20 4 -2 10 0 13 5 8 12 -16 29 -37 26 -9 -2 -15 1
-12 5 3 5 15 7 27 5 23 -5 40 -24 32 -37 -3 -4 0 -8 5 -8 6 0 11 8 12 18 0 9
3 12 5 6 3 -7 14 -9 25 -7 15 4 19 11 15 27 -5 20 -5 21 9 2 8 -11 15 -14 15
-8 0 7 5 12 11 12 5 0 7 -6 3 -12 -4 -7 -3 -9 1 -5 21 18 11 44 -36 91 -28 28
-68 78 -89 111 -22 33 -43 65 -47 70 -4 6 -8 16 -9 23 -2 28 -5 31 -21 25 -16
-6 -17 -5 -3 13 14 19 14 19 -7 0 -17 -14 -20 -23 -13 -37 7 -12 6 -20 -2 -25
-7 -4 -10 -4 -6 1 4 4 3 14 -2 20 -18 21 -4 58 32 88 49 40 77 30 163 -57 88
-89 149 -199 149 -268 0 -37 4 -48 15 -48 28 0 115 -47 143 -76 15 -16 33 -42
42 -58 l14 -28 27 83 c45 139 55 206 57 359 1 137 -7 207 -34 282 -6 15 -14
55 -19 90 -6 35 -12 77 -15 95 -4 23 1 47 17 80 18 36 25 69 27 134 4 79 2 90
-28 150 -17 35 -51 89 -75 119 -24 30 -81 120 -126 200 -89 158 -129 204 -211
239 -110 47 -157 73 -219 122 -35 27 -82 62 -104 77 -22 15 -71 51 -109 80
-39 29 -87 57 -109 63 -54 14 -123 9 -169 -14 -51 -25 -83 -16 -133 37 -22 24
-54 50 -70 59 -49 25 -70 54 -70 99 0 34 6 45 40 74 92 78 85 64 85 168 0 91
-15 186 -58 357 -16 67 -19 125 -6 138 2 2 34 -9 71 -25 75 -31 144 -88 163
-134 7 -17 16 -30 20 -30 4 0 19 -26 33 -57 37 -86 48 -97 93 -95 49 2 69 25
85 100 25 120 12 309 -30 415 -6 15 -9 27 -6 27 2 0 -7 28 -21 62 -13 34 -24
69 -24 79 0 9 -19 54 -42 100 -53 108 -152 209 -203 209 -23 0 -42 -9 -61 -28z
m504 -2870 c26 -28 46 -81 57 -152 3 -19 11 -68 18 -108 13 -72 11 -152 -2
-135 -9 11 -72 157 -75 175 -10 57 -29 139 -38 166 -26 85 -9 107 40 54z m-72
-265 c94 -86 25 -202 -116 -195 -32 2 -58 5 -57 8 1 3 -11 17 -26 32 -31 31
-36 81 -12 128 21 40 60 59 123 60 45 0 57 -4 88 -33z m789 -72 c45 -18 58
-53 52 -129 -6 -70 -43 -131 -99 -160 -31 -18 -40 -18 -77 -8 -53 17 -76 51
-76 117 0 92 75 195 142 195 13 0 39 -7 58 -15z"/>
<path d="M11336 5243 c-15 -15 -34 -43 -42 -62 -19 -44 -27 -94 -15 -87 5 3 7
-3 4 -14 -9 -35 21 -68 61 -66 19 0 38 5 43 10 4 5 3 6 -3 3 -6 -4 -19 2 -29
13 -17 18 -41 18 -30 0 3 -5 1 -11 -4 -14 -5 -4 -8 2 -6 11 2 10 4 18 5 18 1
0 3 8 5 18 5 27 15 34 25 17 7 -12 12 -12 21 -3 10 10 9 17 -5 31 -26 29 -28
60 -4 81 14 13 18 27 14 43 -4 16 -2 14 9 -7 12 -26 20 -27 16 -2 -1 5 3 6 7
3 5 -3 8 -17 6 -32 -2 -26 -14 -47 -14 -26 0 7 -7 12 -15 12 -19 0 -20 -26 -1
-37 14 -8 20 -25 17 -50 0 -7 -11 -21 -23 -33 -23 -21 -20 -32 12 -37 20 -3
51 33 66 77 12 38 12 43 -7 65 -9 11 -15 28 -14 37 2 9 -3 22 -11 29 -8 6 -11
15 -8 20 14 23 -55 7 -80 -18z"/>
<path d="M9300 6900 c-19 -10 -55 -38 -78 -63 -31 -31 -50 -43 -63 -40 -10 3
-19 9 -19 14 0 5 -12 9 -27 9 -20 -1 -34 -10 -48 -33 -21 -32 -119 -105 -144
-106 -10 -1 -12 8 -7 39 6 37 4 40 -20 46 -34 9 -119 -1 -169 -18 -77 -27
-258 -179 -307 -258 -12 -19 -25 -37 -28 -40 -9 -6 -131 -222 -156 -275 -70
-147 -98 -386 -66 -562 12 -67 12 -75 -5 -100 -10 -16 -20 -41 -21 -58 -6 -61
-26 -100 -83 -161 -83 -90 -91 -152 -24 -194 44 -27 95 -86 95 -109 0 -22 -23
-44 -35 -33 -5 4 -5 2 -2 -5 4 -6 4 -18 1 -27 -5 -13 -10 -14 -20 -5 -11 9
-11 5 -4 -20 12 -42 19 -51 34 -45 8 3 17 1 20 -4 3 -5 -2 -9 -12 -8 -19 1
-19 -17 0 -63 6 -14 10 -30 9 -34 0 -4 9 -2 21 5 l23 13 -21 3 c-23 3 -41 52
-23 62 11 8 52 5 66 -3 7 -4 15 -2 19 4 4 7 3 9 -4 5 -6 -3 -15 2 -21 11 -8
14 -11 15 -11 3 0 -12 -2 -12 -10 2 -16 26 16 93 62 132 39 33 101 56 154 56
26 0 27 1 21 51 -4 28 -10 56 -15 63 -11 14 -32 77 -38 114 -2 15 -9 111 -14
215 -10 186 -10 187 13 240 22 47 40 110 51 177 14 86 113 261 214 380 87 102
90 103 152 95 94 -12 114 -10 188 15 97 33 106 23 60 -62 -69 -124 -102 -184
-122 -222 -12 -21 -45 -61 -74 -90 -50 -47 -92 -117 -92 -153 0 -8 -21 -67
-46 -131 l-46 -117 -3 -140 c-1 -77 -5 -147 -9 -156 -4 -10 1 -19 16 -28 69
-37 99 -162 48 -203 -31 -25 -73 -18 -115 20 -16 15 -27 23 -23 18 4 -5 -7
-18 -25 -30 -17 -12 -37 -32 -44 -46 -11 -22 -8 -25 33 -52 25 -16 51 -43 61
-63 10 -22 24 -35 35 -35 11 0 17 4 14 9 -6 8 18 23 39 25 6 1 10 16 10 35 0
39 35 73 121 118 52 27 52 28 39 54 -23 43 -21 91 7 160 15 35 32 107 39 159
11 80 17 99 40 123 15 15 35 27 43 27 29 0 91 47 121 91 17 24 32 46 35 49 3
3 32 39 64 80 73 93 82 100 123 100 38 0 41 -9 12 -36 -35 -31 -45 -57 -56
-140 -5 -36 -2 -44 23 -68 16 -14 35 -26 42 -26 48 0 123 89 136 163 4 20 20
52 35 70 15 17 39 57 54 87 14 30 39 70 56 89 59 64 54 139 -13 211 -40 43
-44 51 -39 86 2 21 13 64 23 94 26 77 32 113 24 144 -5 23 -11 26 -48 26 -50
0 -138 -49 -202 -112 -55 -53 -79 -49 -78 12 0 25 3 56 7 70 3 14 6 30 6 36 1
5 20 39 44 75 72 109 82 132 71 170 -12 41 -41 47 -94 19z"/>
<path d="M9864 5394 c-21 -8 -40 -14 -41 -14 -1 0 -7 -9 -13 -21 -9 -17 -8
-25 6 -40 19 -22 28 -53 12 -43 -5 3 -7 9 -4 12 7 6 -13 32 -25 32 -18 0 37
-82 66 -97 25 -14 147 -25 140 -13 -3 5 -1 12 5 15 6 4 9 3 8 -2 -2 -4 2 -9 7
-10 6 -1 9 6 9 17 -1 11 2 17 7 15 4 -3 6 -14 4 -26 -5 -24 20 -23 49 3 46 42
18 116 -59 153 -62 30 -120 37 -171 19z"/>
<path d="M9325 5330 c-94 -32 -160 -112 -138 -170 9 -24 8 -31 -6 -43 -9 -7
-23 -13 -31 -12 -8 0 -19 -4 -23 -10 -5 -6 -7 -4 -4 5 2 8 10 15 18 15 10 0
14 13 14 47 0 36 -3 44 -12 36 -9 -7 -13 -7 -13 1 0 14 -27 15 -35 1 -3 -5 1
-20 10 -33 12 -19 13 -30 4 -56 -6 -18 -13 -30 -16 -27 -3 2 -17 -8 -31 -23
-25 -25 -26 -25 -7 -1 13 17 8 14 -18 -9 -38 -36 -47 -48 -24 -35 8 5 8 2 -2
-9 -14 -18 -23 -22 -18 -9 1 4 -2 9 -6 11 -11 5 -67 -20 -67 -30 0 -12 36 -29
45 -21 5 4 5 -1 2 -10 -4 -10 -2 -18 3 -18 5 0 11 9 15 19 6 19 39 53 33 35
-1 -5 3 -24 10 -43 9 -27 15 -32 24 -23 23 23 31 12 9 -12 -23 -24 -23 -25 -2
-19 12 3 29 -1 38 -8 15 -13 15 -12 3 11 -12 23 -12 24 3 12 14 -12 16 -11 14
7 -1 12 -6 20 -12 17 -7 -2 -12 2 -12 10 0 7 3 11 7 9 4 -3 6 6 5 20 -2 13 5
31 16 41 15 14 17 20 7 33 -10 13 -10 14 2 4 16 -15 54 -18 45 -4 -3 5 0 13 7
17 7 4 10 4 6 -1 -4 -4 -3 -14 3 -21 7 -8 7 -14 -1 -19 -5 -3 -10 -3 -10 2 0
4 -7 -2 -15 -14 -15 -21 -11 -58 5 -48 14 9 -8 -58 -25 -74 -18 -19 -89 -26
-79 -8 4 6 3 9 -1 4 -12 -11 -17 -49 -6 -42 10 6 31 -25 31 -44 0 -6 -8 -11
-17 -12 -13 0 -14 -2 -4 -6 8 -3 20 2 28 13 7 10 13 12 13 6 0 -7 5 -12 10
-12 7 0 7 8 -1 23 -12 22 -12 22 10 3 21 -19 30 -9 10 11 -8 8 -8 13 0 18 7 4
10 1 9 -7 -2 -8 5 -12 17 -10 16 2 17 1 5 -7 -8 -6 -10 -11 -4 -11 6 0 19 9
29 20 10 11 20 18 23 15 3 -3 11 0 19 7 11 9 11 14 -2 28 -13 14 -13 17 0 17
8 0 12 -4 9 -9 -8 -13 21 -9 34 4 7 7 12 17 12 22 0 6 -5 3 -11 -7 -8 -14 -14
-16 -25 -6 -7 6 -11 15 -8 20 3 5 1 9 -4 9 -10 0 -10 50 1 68 5 7 3 12 -6 12
-8 0 -21 -10 -29 -21 -13 -21 -14 -21 -28 -3 -14 17 -14 18 2 6 14 -12 17 -11
17 5 2 52 4 57 16 39 11 -14 14 -14 18 -2 3 8 -2 16 -12 19 -10 2 -21 17 -23
32 -6 27 -5 27 43 23 26 -3 46 -1 43 4 -3 5 -9 6 -14 3 -5 -3 -11 -1 -14 4 -3
5 -19 7 -36 6 -25 -2 -28 0 -19 11 6 8 8 14 4 14 -4 0 -3 6 2 13 13 17 10 43
-6 39 -7 -1 -10 2 -6 8 5 8 11 8 20 0 14 -11 14 -27 2 -46 -4 -7 1 -18 10 -25
15 -12 16 -12 10 4 -5 12 -3 16 5 11 8 -5 9 -2 5 10 -4 10 -3 15 3 11 6 -3 10
-1 10 4 0 6 -4 11 -10 11 -5 0 -6 7 -3 17 4 10 2 14 -4 10 -6 -4 -17 1 -24 11
-12 15 -12 16 2 5 12 -10 18 -10 29 0 10 9 11 9 6 -1 -6 -10 -1 -11 18 -6 16
4 26 2 26 -5 0 -6 -5 -11 -12 -11 -8 0 -6 -6 4 -17 14 -14 19 -14 33 -3 9 8
14 22 11 33 -8 31 39 70 77 65 39 -6 59 0 50 15 -5 8 -2 8 8 0 11 -9 19 -9 26
-2 7 7 14 4 24 -8 13 -16 12 -17 -3 -5 -11 9 -18 10 -23 2 -3 -6 -10 -8 -15
-5 -4 3 -10 -2 -14 -10 -3 -8 0 -17 6 -21 6 -4 2 -12 -13 -20 -32 -18 -44 -17
-30 0 10 12 8 17 -7 25 -25 13 -40 -3 -37 -43 3 -37 -43 -68 -85 -56 -28 8
-50 -3 -50 -24 0 -5 3 -7 6 -3 7 6 64 -19 64 -29 0 -3 -4 -3 -8 0 -5 3 -9 -1
-9 -9 0 -9 4 -11 11 -6 6 5 28 12 49 15 47 9 87 26 87 38 0 5 5 6 10 3 14 -9
12 8 -2 25 -7 8 -3 7 8 -3 20 -17 22 -17 28 -1 3 9 2 22 -3 28 -6 8 -6 17 1
26 8 13 9 12 5 -2 -3 -9 1 -22 9 -28 8 -7 14 -10 14 -7 0 2 6 20 14 38 12 30
12 38 -1 69 -9 19 -15 40 -14 45 2 6 -1 7 -4 3 -4 -4 -17 -2 -28 4 -30 16
-111 15 -162 -2z"/>
<path d="M9567 5133 c-4 -6 -3 -14 3 -18 6 -4 8 -11 4 -16 -3 -5 -9 -7 -14 -4
-15 9 -25 -18 -25 -64 0 -40 -3 -47 -34 -64 -25 -15 -38 -18 -50 -10 -14 9
-17 7 -18 -8 -2 -17 8 -23 28 -21 4 1 5 -8 2 -18 -3 -12 0 -20 6 -20 7 0 10 4
7 9 -3 4 4 8 17 7 17 -1 22 4 21 22 -1 12 1 20 5 17 3 -4 6 -10 6 -13 0 -4 4
-13 9 -21 7 -10 6 -12 -4 -6 -9 5 -11 4 -6 -4 10 -16 29 -2 21 16 -4 13 -3 14
9 4 10 -8 16 -9 21 -1 3 6 11 8 16 5 5 -4 13 4 18 17 6 13 10 19 10 14 1 -12
31 14 31 28 0 7 -3 7 -8 1 -11 -15 -39 -14 -39 1 0 7 5 10 10 7 5 -3 7 0 5 8
-3 8 -12 13 -19 11 -11 -3 -11 -1 -2 9 6 6 9 17 7 24 -3 7 -1 16 5 20 16 9 13
22 -4 22 -8 0 -12 -4 -10 -8 3 -4 -2 -9 -10 -13 -22 -8 -18 11 5 31 11 10 20
21 20 26 0 5 -6 4 -14 -2 -11 -10 -15 -8 -18 6 -2 12 -6 14 -11 6z"/>
<path d="M8726 4963 c-13 -13 -16 -13 -10 -3 6 12 5 13 -8 3 -8 -7 -19 -9 -23
-5 -5 4 -5 2 -2 -4 3 -6 -6 -17 -21 -25 -15 -8 -36 -24 -48 -36 -12 -13 -24
-20 -28 -16 -4 4 -4 0 0 -10 4 -11 0 -19 -10 -23 -9 -3 -13 -10 -10 -15 3 -5
0 -9 -6 -9 -6 0 -9 -4 -6 -9 8 -12 -4 -42 -13 -36 -4 2 -8 -2 -8 -10 0 -8 2
-13 5 -10 3 2 14 -13 24 -35 11 -21 28 -42 39 -45 11 -4 17 -10 14 -15 -8 -13
23 -5 75 19 25 11 55 21 68 21 16 0 21 4 16 13 -6 9 -4 9 7 1 27 -22 88 -6 72
19 -4 6 -1 7 7 2 8 -5 18 -2 26 9 7 10 16 17 21 17 4 -1 8 2 8 7 1 4 8 21 18
39 13 24 14 33 4 36 -9 4 -8 6 2 6 11 1 11 4 0 18 -9 10 -9 14 -2 10 24 -15
-8 53 -33 70 -31 20 -140 33 -155 19 -9 -8 -10 -8 -5 2 10 17 4 15 -18 -5z
m120 -15 c-1 -7 -5 -18 -9 -24 -4 -7 0 -17 8 -24 8 -7 15 -9 15 -5 0 4 6 2 13
-4 14 -11 17 -48 4 -67 -4 -7 0 -17 8 -24 14 -12 14 -15 0 -30 -8 -9 -12 -20
-8 -25 5 -4 2 -5 -5 0 -11 6 -11 10 2 23 14 15 14 18 -7 40 -14 15 -17 22 -7
20 9 -2 14 6 15 25 0 15 -4 27 -10 26 -5 -1 -9 -5 -7 -11 1 -5 -2 -7 -8 -3 -5
3 -10 2 -10 -4 0 -17 -38 -33 -46 -19 -4 7 -3 8 4 4 7 -4 12 -1 12 8 0 10 -9
16 -24 16 -33 0 -41 -15 -18 -32 55 -38 42 -88 -28 -109 -22 -7 -40 -16 -40
-21 0 -5 -5 -6 -10 -3 -6 4 -8 10 -5 15 3 4 -6 11 -20 14 -22 6 -23 9 -13 26
15 23 40 27 32 5 -5 -11 1 -15 25 -15 36 0 54 27 28 42 -9 5 -21 18 -27 28
-15 28 1 54 49 77 22 11 38 16 34 10 -4 -6 -1 -7 6 -3 7 5 10 14 7 22 -3 7 -1
16 5 19 5 4 8 3 7 -2 -2 -4 2 -9 7 -10 6 -2 11 2 11 7 2 16 4 20 8 20 2 0 3
-6 2 -12z"/>
<path d="M9310 4830 c-17 -22 -29 -41 -26 -41 14 -3 26 -7 31 -9 3 -1 10 -4
15 -5 6 -1 13 -4 18 -5 4 -1 10 -2 13 -2 3 1 6 -6 6 -14 0 -11 -4 -11 -19 3
-10 9 -18 13 -18 8 0 -4 -7 -2 -15 5 -8 7 -15 9 -15 4 0 -4 -5 -3 -11 3 -9 9
-30 2 -84 -27 -40 -21 -76 -36 -79 -33 -3 4 -6 2 -7 -3 0 -5 -2 -17 -4 -26 -2
-11 2 -15 11 -11 8 3 14 0 14 -6 0 -10 -12 -15 -35 -12 -15 1 35 -33 51 -35 8
-1 19 7 25 18 8 15 7 24 -8 41 -13 15 -13 18 -2 9 13 -10 19 -9 29 3 7 8 16
13 20 10 5 -3 11 -1 15 5 4 6 11 8 16 4 5 -3 16 -1 23 5 10 8 12 6 11 -11 -1
-12 -11 -25 -24 -30 -19 -7 -22 -14 -19 -38 2 -16 2 -27 -1 -25 -10 5 -45 -24
-38 -31 4 -4 14 -1 24 7 14 12 16 12 8 0 -6 -11 -4 -13 11 -7 10 5 27 11 36
13 10 3 15 9 12 14 -3 5 3 9 14 9 10 0 19 7 19 15 0 11 -4 12 -11 5 -5 -5 -18
-10 -28 -10 -10 0 -18 -6 -18 -12 0 -7 -5 -5 -11 5 -6 10 -8 21 -5 24 3 4 6 1
6 -6 0 -7 5 -9 10 -6 6 4 7 12 3 18 -4 7 0 6 10 -2 9 -7 17 -12 18 -10 6 31 6
38 -1 34 -5 -3 -8 4 -7 15 1 20 2 20 14 4 7 -9 14 -22 16 -28 3 -8 8 -7 18 2
11 10 10 12 -4 12 -14 0 -15 4 -7 26 6 14 7 30 4 36 -9 14 37 -11 63 -35 l22
-20 -4 29 c-4 24 -3 26 5 11 10 -16 14 -15 49 13 39 32 127 70 161 70 18 0 18
3 8 28 -7 15 -13 28 -14 30 -1 2 -25 -9 -54 -23 -72 -36 -148 -37 -195 -1
l-33 26 -32 -40z"/>
<path d="M10291 4816 c-12 -14 -4 -49 8 -41 4 2 5 -9 3 -26 -5 -34 -46 -67
-80 -64 -29 2 -37 -11 -18 -30 18 -18 50 -20 41 -2 -4 6 0 4 9 -7 14 -18 16
-18 53 5 21 13 43 24 48 24 6 0 9 9 8 20 -1 18 0 18 10 4 11 -15 14 -14 31 10
l20 26 -22 -19 c-12 -11 -22 -14 -22 -8 0 23 -1 27 -15 48 -10 16 -11 24 -2
33 8 8 8 14 -1 23 -7 7 -12 9 -12 5 0 -3 -11 -2 -24 3 -17 6 -28 5 -35 -4z"/>
<path d="M9568 4776 c-21 -8 -50 -22 -65 -32 -16 -10 -32 -17 -36 -16 -5 1 -6
-2 -3 -7 4 -5 0 -13 -8 -18 -8 -4 -24 -25 -36 -45 l-22 -38 24 1 c12 0 34 -3
47 -7 19 -6 22 -4 16 7 -5 8 3 5 16 -7 13 -12 31 -24 39 -28 8 -4 7 -1 -3 7
-14 11 -15 16 -5 20 8 3 9 6 1 6 -6 1 -9 10 -5 23 3 14 2 19 -7 14 -6 -4 -9
-11 -6 -16 3 -5 0 -12 -6 -16 -8 -4 -9 -3 -5 4 4 8 0 12 -11 12 -16 0 -15 2 3
13 12 6 38 25 58 41 20 15 42 26 50 23 22 -8 38 16 23 33 -10 12 -9 12 6 1 10
-8 15 -21 12 -31 -3 -10 0 -20 9 -23 10 -4 12 0 9 14 -3 10 0 19 6 19 5 0 8 7
5 15 -4 8 -10 13 -14 10 -4 -3 -13 2 -19 9 -16 19 10 16 33 -3 18 -16 22 -1 4
17 -16 16 -63 15 -110 -2z"/>
<path d="M11038 4744 c6 -12 9 -24 6 -27 -3 -3 2 -17 12 -32 16 -24 16 -26 -1
-39 -14 -10 -15 -16 -6 -34 6 -11 12 -32 13 -46 2 -20 6 -25 21 -20 16 5 18 2
12 -15 -4 -14 -1 -23 9 -27 19 -7 47 13 41 29 -21 59 -9 81 29 54 28 -21 28
-62 0 -88 -28 -26 -118 -45 -110 -22 3 8 1 11 -4 8 -6 -3 -10 -12 -10 -19 0
-24 -72 -85 -119 -101 -67 -23 -139 -19 -196 10 -27 13 -49 23 -50 22 0 -1 -7
-23 -16 -49 l-17 -48 37 0 c52 0 129 -28 172 -61 20 -16 40 -25 44 -21 5 4 5
2 2 -4 -4 -7 -1 -17 7 -23 10 -8 17 -6 30 7 9 10 13 22 9 27 -5 4 -2 5 4 1 7
-4 26 3 42 15 16 12 36 19 43 16 9 -3 14 3 16 16 1 17 -1 19 -8 7 -6 -9 -10
-10 -10 -3 0 6 -8 14 -17 16 -10 3 -5 4 10 3 16 -1 33 -9 38 -17 6 -9 9 -10 9
-2 0 7 7 10 15 7 8 -4 15 -1 15 5 0 6 11 17 25 23 36 16 31 25 -11 20 -37 -4
-124 23 -124 39 0 19 38 46 60 42 22 -3 23 -2 7 15 -15 16 -15 19 -2 19 8 0
13 -3 10 -5 -3 -3 2 -13 10 -23 13 -14 23 -15 57 -8 50 12 88 31 112 58 10 11
23 18 27 15 5 -3 4 7 -1 23 -9 25 -9 26 4 10 13 -16 14 -16 21 5 4 13 8 25 9
28 1 3 5 15 10 28 4 12 12 22 18 22 6 0 5 -7 -3 -17 -11 -15 -11 -16 1 -6 32
29 19 38 -54 38 -62 0 -78 4 -131 34 -33 19 -65 41 -71 49 -7 10 -16 12 -25 7
-11 -7 -12 -6 -2 7 11 12 9 18 -8 34 -22 19 -22 19 -11 -2z"/>
<path d="M8490 4685 c-54 -28 -112 -37 -163 -25 -26 5 -37 4 -37 -4 0 -6 -9
-22 -20 -36 -11 -14 -20 -34 -20 -45 0 -17 -2 -17 -10 -5 -8 13 -10 13 -10 -2
0 -13 8 -17 35 -16 22 1 35 6 35 15 0 17 11 17 38 -3 12 -8 19 -20 16 -26 -4
-6 -2 -8 4 -5 11 7 62 -47 62 -66 0 -6 19 9 43 34 23 24 64 54 90 67 26 13 47
26 47 28 0 3 -10 18 -21 33 -13 18 -18 34 -14 43 5 7 4 9 0 5 -5 -4 -14 1 -19
12 -11 18 -12 18 -56 -4z"/>
<path d="M10180 4610 c0 -6 5 -10 10 -10 6 0 10 -4 10 -10 0 -5 -8 -7 -17 -3
-10 3 -15 3 -11 -2 15 -16 -54 -85 -117 -116 -53 -26 -75 -31 -127 -30 -35 0
-73 3 -85 5 -13 3 -26 -1 -29 -7 -4 -7 -4 -9 1 -5 4 4 14 3 22 -3 7 -6 13 -8
13 -4 0 4 6 2 14 -4 8 -7 16 -8 19 -4 5 9 161 8 214 -1 24 -4 31 -2 27 9 -3 7
-13 16 -21 19 -13 5 -12 9 6 26 23 19 51 17 51 -3 0 -7 4 -7 12 1 14 14 52 16
43 2 -3 -5 -13 -6 -22 -3 -13 5 -15 2 -10 -17 3 -13 1 -31 -6 -39 -11 -14 -10
-14 6 -2 12 9 15 21 11 35 -6 18 -5 19 10 7 9 -7 17 -11 17 -7 1 3 2 12 3 19
1 6 7 11 14 9 10 -2 10 2 0 17 -7 12 -17 17 -23 12 -18 -14 -55 -20 -61 -9 -3
5 -13 7 -21 4 -8 -3 -11 -1 -8 4 3 6 19 8 36 5 33 -6 39 2 9 13 -21 8 -21 8
-1 31 l20 22 11 -22 c10 -17 14 -19 21 -8 8 13 13 5 10 -14 -1 -5 3 -5 9 -2 8
5 6 13 -4 24 -19 21 -21 35 -4 25 7 -4 8 -3 4 5 -4 6 -12 9 -17 6 -5 -4 -9 0
-9 8 0 8 -7 17 -15 21 -8 3 -15 1 -15 -4z"/>
<path d="M9101 4572 c-1 -7 -5 -10 -11 -7 -5 3 -10 1 -10 -5 0 -6 -4 -8 -10
-5 -5 3 -10 1 -10 -5 0 -6 -4 -9 -9 -6 -15 10 -31 -20 -34 -63 -1 -22 -5 -41
-9 -41 -8 0 -23 -42 -19 -55 1 -5 -1 -7 -4 -3 -4 4 -22 -3 -39 -16 -17 -13
-50 -30 -73 -36 -50 -15 -66 -39 -22 -35 33 3 79 30 79 47 0 6 3 8 7 5 3 -4
-1 -15 -10 -24 -14 -17 -13 -20 9 -46 13 -15 24 -22 24 -15 0 8 3 9 8 3 8 -12
132 -15 132 -3 0 4 3 7 8 7 20 -3 23 3 11 18 -12 14 -12 16 0 8 11 -6 13 -4 8
8 -3 10 -2 17 4 17 6 0 9 -10 7 -22 -2 -15 2 -22 11 -20 7 2 23 -5 34 -15 20
-18 20 -18 2 9 -9 15 -20 26 -24 23 -4 -2 -8 2 -9 10 -1 8 -3 22 -4 30 -2 18
-12 19 -30 3 -7 -7 -22 -15 -33 -16 -11 -2 -24 -8 -29 -13 -13 -12 -29 -12
-22 0 3 5 -5 11 -17 15 -28 7 -31 29 -5 45 15 9 18 8 18 -9 0 -16 7 -20 30
-20 36 0 41 27 10 50 -11 8 -20 24 -20 36 0 27 48 70 77 68 12 -1 21 2 19 5
-7 13 11 44 27 47 11 1 14 -2 10 -9 -4 -7 1 -5 11 3 17 13 17 14 -1 21 -10 3
-24 4 -31 1 -7 -2 -20 2 -29 9 -12 10 -15 10 -9 2 4 -7 3 -13 -3 -13 -5 0 -12
6 -14 13 -4 9 -6 9 -6 -1z"/>
<path d="M8560 4562 c0 -6 -10 -14 -22 -18 -13 -4 -34 -19 -48 -34 -51 -55
-65 -73 -50 -65 12 7 13 6 3 -6 -13 -16 -14 -61 -1 -53 5 3 6 9 3 14 -3 6 7 2
24 -7 16 -10 28 -21 25 -24 -2 -4 5 -5 16 -2 11 3 20 9 20 14 0 5 7 9 15 9 9
0 12 -6 9 -15 -5 -11 1 -15 25 -15 17 0 31 5 31 12 0 6 7 3 15 -8 8 -10 15
-14 15 -8 0 6 -11 21 -25 34 -14 13 -25 30 -25 37 0 8 -4 12 -9 8 -5 -3 -9 23
-9 60 1 36 -2 68 -6 72 -3 3 -6 1 -6 -5z"/>
<path d="M10365 4300 c-5 -9 -4 -11 3 -6 11 7 17 -6 13 -27 -1 -5 3 -6 9 -2 5
3 10 1 10 -4 0 -17 -40 -17 -107 0 -48 13 -83 5 -65 -13 8 -8 5 -16 -12 -29
-29 -23 -50 -27 -52 -11 -1 6 -2 17 -3 23 0 5 -6 7 -11 4 -6 -4 -7 -12 -4 -18
5 -8 3 -8 -7 1 -20 18 -33 15 -18 -5 13 -17 13 -17 -7 0 -18 15 -36 16 -141
12 -106 -4 -125 -8 -169 -31 -27 -15 -50 -28 -51 -28 -1 -1 -4 -21 -7 -46 -3
-25 -3 -40 0 -33 3 7 13 9 22 6 15 -6 16 -5 2 13 -14 17 -13 18 1 7 9 -7 20
-9 25 -5 4 4 3 0 -4 -9 -6 -9 -8 -20 -4 -24 4 -5 2 -6 -3 -2 -6 3 -17 2 -25
-3 -13 -8 -12 -13 3 -39 11 -19 14 -32 7 -36 -16 -10 -32 5 -25 23 3 9 3 13
-1 9 -4 -4 -14 -1 -23 6 -14 11 -14 10 -2 -5 12 -16 11 -18 -8 -18 -11 0 -21
-4 -21 -10 0 -5 5 -10 10 -10 6 0 10 -7 10 -16 0 -8 5 -12 10 -9 6 4 8 11 4
16 -3 6 3 5 14 -2 12 -7 19 -16 16 -20 -2 -4 5 -5 16 -2 11 3 20 10 20 15 0 5
6 6 13 2 6 -4 9 -4 5 1 -4 4 -2 15 4 24 10 12 8 12 -8 -1 -34 -29 -42 -20 -8
10 16 15 36 46 44 69 7 23 17 40 22 37 4 -3 11 1 14 10 4 10 17 13 47 11 60
-5 76 -9 90 -25 10 -12 9 -12 -4 -2 -13 10 -18 10 -22 -1 -3 -9 -16 -13 -31
-12 -29 4 -43 -10 -50 -48 -2 -15 -7 -31 -10 -35 -9 -14 79 -13 114 2 38 15
29 26 -17 20 -26 -3 -33 0 -33 14 0 15 2 15 10 2 8 -12 10 -12 10 -1 0 10 3
11 14 2 10 -9 16 -8 26 4 7 8 19 15 26 15 8 0 14 5 14 10 0 6 -8 10 -19 10
-16 0 -17 4 -7 34 6 19 12 33 14 31 2 -2 15 0 28 5 13 5 23 6 21 2 -4 -13 41
-54 47 -43 4 5 13 8 21 5 8 -4 13 -10 10 -14 -3 -5 0 -12 5 -15 7 -4 10 -38 9
-85 -1 -42 1 -82 5 -88 10 -17 34 -8 71 28 19 19 35 30 35 25 0 -5 7 1 16 13
8 12 19 20 24 17 4 -3 11 1 13 7 4 8 6 9 6 2 1 -6 -6 -17 -14 -24 -8 -7 -15
-9 -15 -6 0 4 -14 -9 -31 -29 -17 -19 -36 -32 -42 -28 -6 3 -7 1 -3 -5 11 -18
17 -15 66 28 25 22 64 47 88 56 23 9 42 21 42 27 0 5 -7 4 -15 -3 -8 -7 -15
-9 -15 -5 0 4 -6 2 -13 -4 -10 -8 -14 -7 -14 4 0 8 4 12 8 9 4 -2 10 0 14 6 4
6 10 8 15 5 5 -3 12 -1 15 5 5 8 12 7 23 -2 13 -11 14 -11 7 1 -6 11 -4 13 7
8 23 -8 51 27 43 54 -4 12 -8 28 -9 35 -5 30 -14 24 -11 -7 3 -25 2 -30 -5
-19 -7 11 -10 7 -10 -17 0 -29 -3 -33 -27 -34 -73 -3 -127 3 -155 17 -32 17
-61 72 -56 108 4 30 22 22 31 -15 10 -37 55 -59 119 -59 67 0 85 8 92 42 3 17
10 27 16 23 13 -8 8 17 -5 27 -5 4 0 8 11 8 12 0 27 7 34 15 11 13 8 15 -16
15 -16 0 -44 4 -62 9 -20 6 -30 6 -27 0 4 -5 1 -9 -4 -9 -6 0 -11 8 -12 18 0
14 -2 14 -9 -3 -6 -14 -9 -16 -10 -5 -2 8 -1 20 0 25 1 6 -2 7 -6 3 -4 -4 -12
0 -19 9 -9 13 -14 13 -20 3z"/>
<path d="M9625 4272 c-11 -2 -31 -14 -45 -27 -40 -37 -115 -65 -177 -65 -57 0
-128 16 -151 33 -19 14 -3 -24 17 -41 10 -9 11 -11 2 -6 -10 5 -12 3 -7 -5 6
-9 11 -9 21 -1 14 12 30 -2 17 -14 -4 -4 -7 -13 -7 -19 -1 -7 -7 -11 -15 -9
-11 3 -10 -1 3 -16 18 -19 23 -37 9 -28 -5 3 -9 -1 -9 -10 0 -9 7 -12 19 -8
11 3 18 0 18 -7 0 -7 3 -10 6 -6 4 3 22 0 41 -8 43 -18 57 -19 47 -2 -5 7 0 6
11 -3 11 -9 16 -10 11 -2 -4 6 -2 12 3 12 6 0 11 -4 11 -10 0 -18 17 -11 49
19 18 17 35 30 39 30 4 1 7 15 8 31 1 24 -3 30 -14 25 -12 -4 -12 -2 -4 8 12
14 7 27 -10 27 -5 0 -6 -6 -2 -12 4 -7 4 -10 -1 -6 -4 4 -14 3 -21 -3 -8 -7
-14 -6 -20 2 -4 8 -3 9 4 5 7 -4 12 -3 12 3 0 6 11 13 25 17 14 3 22 10 19 15
-5 8 8 12 22 7 4 -2 11 8 16 22 5 14 12 20 16 14 8 -13 62 -25 62 -14 0 4 11
6 24 5 34 -4 55 11 27 20 -12 3 -18 11 -15 17 4 7 2 8 -4 4 -7 -4 -12 -1 -12
6 0 10 -2 10 -9 -1 -5 -7 -10 -9 -12 -4 -2 5 -13 7 -24 5z"/>
<path d="M7990 3700 c0 -6 -4 -9 -9 -6 -11 7 -36 -22 -27 -31 3 -3 6 -1 6 6 0
7 5 9 11 6 15 -10 5 -29 -17 -31 -10 0 -38 -1 -62 -2 -24 -1 -41 -6 -37 -11 3
-5 1 -13 -5 -16 -6 -4 -9 -1 -8 6 3 10 -14 16 -109 39 -1 0 -8 -13 -16 -30
-10 -20 -11 -29 -4 -27 7 1 15 9 19 17 4 10 7 7 7 -10 1 -19 3 -22 10 -10 6 8
8 17 5 21 -2 4 0 10 5 14 6 3 8 -3 6 -14 -2 -11 3 -25 11 -32 12 -10 15 -10
12 1 -2 8 3 14 10 15 7 0 16 6 21 13 6 10 10 8 14 -9 5 -19 8 -20 22 -9 14 11
16 11 13 -1 -2 -8 -7 -17 -13 -21 -5 -4 2 -11 16 -17 14 -5 26 -16 26 -25 0
-8 -4 -13 -9 -10 -5 3 -6 10 -3 15 4 5 0 9 -9 9 -8 0 -23 12 -33 26 -16 22
-21 24 -31 11 -11 -12 -7 -17 18 -26 20 -7 29 -15 24 -22 -4 -7 -3 -9 3 -6 5
4 16 -5 23 -18 7 -14 17 -25 22 -25 5 0 7 4 4 9 -4 5 5 8 20 6 16 -1 23 2 21
9 -3 7 4 13 14 13 12 1 19 -5 19 -15 0 -15 2 -15 10 -2 5 8 10 11 10 6 0 -5 7
-3 15 4 10 8 13 21 9 34 -6 21 -6 21 10 1 8 -11 16 -14 16 -7 0 6 5 11 12 10
6 -2 16 6 22 17 7 13 21 20 38 19 22 -1 26 2 17 12 -13 16 -23 19 -14 4 6 -10
-19 -8 -61 5 -6 2 -17 -1 -25 -6 -11 -7 -11 -9 -1 -9 8 0 10 -5 6 -12 -6 -10
-4 -10 7 0 18 16 29 15 29 -4 0 -8 -4 -13 -9 -9 -5 3 -13 0 -17 -6 -5 -9 -11
-7 -21 6 -7 11 -13 14 -13 9 0 -6 -7 -11 -15 -11 -19 0 -19 7 1 22 15 11 15
12 0 12 -9 0 -16 -5 -16 -11 0 -6 -5 -4 -11 4 -9 12 -10 11 -4 -5 4 -11 8 -24
9 -30 4 -21 18 -35 28 -29 7 5 8 2 4 -5 -6 -9 -12 -9 -25 3 -10 9 -21 13 -25
9 -4 -5 -6 -3 -4 2 2 6 -1 11 -7 12 -5 0 -9 -3 -7 -9 1 -5 -2 -6 -8 -3 -8 5
-6 13 4 24 24 26 20 30 -24 25 -23 -3 -40 -1 -40 5 0 6 6 8 14 5 8 -3 17 0 21
5 3 6 11 9 16 6 5 -3 6 1 3 9 -6 15 11 17 34 2 8 -5 12 -3 10 6 -2 7 3 12 10
10 10 -2 10 2 2 17 -8 16 -7 22 6 29 11 6 13 11 5 16 -6 4 -11 2 -11 -4z"/>
<path d="M10447 3396 c-15 -7 -24 -16 -20 -21 5 -4 3 -5 -4 -2 -16 10 -44 -3
-36 -16 3 -6 1 -7 -6 -3 -14 9 -43 -12 -35 -25 3 -5 2 -9 -3 -8 -16 4 -43 -13
-36 -24 3 -5 1 -7 -4 -4 -6 4 -23 -3 -39 -15 -15 -13 -25 -17 -20 -10 5 8 3
11 -6 10 -7 -2 -12 3 -10 10 1 8 -2 11 -9 7 -8 -5 -8 -10 0 -18 17 -17 13 -31
-4 -17 -13 11 -14 10 -9 -4 4 -11 0 -16 -12 -18 -11 0 -31 -2 -45 -3 -14 -1
-32 -5 -40 -9 -8 -4 -6 -1 4 7 17 14 16 15 -4 20 -13 4 -18 10 -13 18 4 7 3
10 -3 6 -14 -9 -41 24 -38 44 2 9 -3 16 -11 16 -10 0 -11 -4 -3 -14 6 -7 8
-13 3 -13 -4 0 3 -11 16 -25 21 -23 20 -30 -3 -26 -5 1 -6 -3 -3 -8 4 -5 15
-8 27 -6 14 3 19 -1 17 -13 -2 -9 3 -17 10 -17 8 0 19 -8 26 -17 8 -10 26 -18
43 -18 42 0 94 20 86 33 -4 6 0 8 10 4 10 -4 17 -1 17 6 0 8 4 6 10 -3 8 -12
10 -12 11 5 0 13 2 15 6 6 4 -10 9 -8 20 10 8 13 12 16 9 6 -3 -11 -2 -15 4
-12 6 3 10 14 10 23 0 15 2 15 10 2 9 -13 10 -13 10 1 0 8 15 28 33 45 l32 29
-30 -35 -30 -35 32 29 c17 15 29 34 27 41 -3 7 0 16 5 20 6 3 9 11 6 16 -4 5
-2 9 3 9 6 0 12 7 16 15 3 8 4 15 3 14 -1 0 -14 -6 -30 -13z"/>
<path d="M9678 3319 c6 -7 12 -19 12 -27 0 -8 -5 -10 -12 -6 -10 6 -10 5 -1
-8 29 -35 -50 -127 -99 -115 -10 3 -18 1 -18 -4 0 -5 -9 -9 -20 -9 -11 0 -19
-3 -18 -7 3 -15 -15 -68 -26 -75 -16 -11 43 -10 104 2 29 6 59 18 67 28 10 11
12 12 8 2 -4 -9 -1 -8 8 3 11 14 16 15 20 5 4 -9 6 -7 6 4 1 10 7 15 14 13 6
-3 23 5 37 16 14 11 19 17 11 13 -10 -5 -12 -3 -7 5 6 9 11 9 21 1 11 -9 17
-4 29 24 8 20 18 36 21 36 3 0 0 -10 -6 -22 -9 -18 -9 -20 0 -12 7 6 14 26 16
45 2 19 1 28 -2 22 -2 -7 -9 -13 -14 -13 -6 0 -7 6 -3 13 6 9 4 9 -8 -1 -12
-10 -23 -10 -54 1 -22 7 -38 19 -36 26 1 7 -2 9 -8 6 -7 -4 -14 2 -17 13 -3
11 -12 23 -21 27 -14 5 -15 4 -4 -6z"/>
</g>
</svg>
