<?xml version="1.0" standalone="no"?>
<!DOCTYPE svg PUBLIC "-//W3C//DTD SVG 20010904//EN"
 "http://www.w3.org/TR/2001/REC-SVG-20010904/DTD/svg10.dtd">
<svg version="1.0" xmlns="http://www.w3.org/2000/svg"
 width="1230.000000pt" height="1660.000000pt" viewBox="0 0 1230.000000 1660.000000"
 preserveAspectRatio="xMidYMid meet">

<g transform="translate(0.000000,1660.000000) scale(0.100000,-0.100000)"
fill="#000000" stroke="none">
<path d="M6640 5162 c1 -15 217 -436 226 -439 8 -3 34 41 34 58 0 4 13 37 30
72 23 50 46 80 101 129 40 34 78 69 85 76 7 6 17 12 23 12 6 0 11 3 11 8 0 4
18 18 40 32 22 14 40 28 40 32 0 5 6 8 14 8 8 0 18 4 21 10 4 6 -108 9 -310 9
-173 0 -315 -3 -315 -7z"/>
<path d="M6582 5126 c-29 -18 -32 -25 -26 -51 4 -16 10 -52 14 -80 5 -27 15
-77 24 -110 23 -89 9 -124 -70 -183 -34 -26 -61 -49 -59 -50 4 -5 142 12 281
34 l102 17 -86 166 c-47 91 -99 191 -116 222 l-31 56 -33 -21z"/>
<path d="M4603 4880 c-27 -11 -29 -18 -49 -205 -8 -82 -18 -163 -20 -180 -3
-16 -7 -72 -11 -123 -3 -51 -10 -95 -14 -98 -11 -7 -11 11 2 121 22 194 48
460 44 463 -2 2 -18 -3 -37 -11 -47 -21 -118 -52 -156 -68 -27 -12 -32 -18
-28 -39 3 -14 10 -79 16 -145 15 -166 79 -730 88 -785 l9 -45 7 60 c4 33 11
85 16 115 l9 55 -5 -65 c-2 -36 -7 -90 -10 -120 -5 -54 -5 -55 26 -72 39 -22
29 -30 211 142 513 482 494 463 480 488 -6 11 -11 35 -11 52 0 113 131 160
209 74 33 -36 34 -36 90 -30 31 4 162 28 291 55 234 48 235 48 238 75 4 33 -3
43 -94 116 -68 56 -225 140 -259 140 -8 0 -23 -4 -33 -9 -29 -15 -64 -29 -140
-55 -81 -28 -73 -29 -182 22 -40 19 -67 22 -230 25 -123 3 -210 9 -260 20
-186 41 -167 39 -197 27z m-107 -770 l-14 -105 4 100 c5 107 15 167 21 130 2
-11 -3 -67 -11 -125z"/>
<path d="M4210 4740 c-25 -5 -65 -11 -90 -15 -25 -4 -50 -8 -57 -10 -14 -5 -3
-40 67 -221 23 -60 60 -154 81 -209 21 -55 57 -148 80 -207 23 -60 40 -110 38
-112 -3 -3 -70 161 -149 364 l-145 369 -60 5 c-33 3 -121 7 -196 10 l-136 4
-111 -128 -110 -127 268 -268 c147 -147 274 -271 281 -276 7 -4 21 -3 30 2 68
36 157 -28 147 -105 -2 -20 4 -31 27 -46 33 -22 30 -25 -11 -10 -23 9 -31 7
-50 -11 -18 -16 -35 -22 -69 -21 -42 0 -47 -3 -79 -47 -26 -34 -33 -54 -29
-71 6 -22 9 -22 77 -17 86 7 294 35 319 43 25 8 21 29 -10 53 l-28 21 28 -10
c25 -9 31 -6 52 18 29 32 30 41 10 89 -8 20 -14 38 -11 40 2 2 11 -15 21 -39
10 -24 19 -38 22 -32 4 11 -31 347 -62 594 -8 63 -21 171 -30 238 -8 68 -15
128 -15 133 0 10 -35 10 -100 -1z m159 -875 c0 -5 -6 1 -14 15 -8 14 -14 30
-14 35 0 6 6 -1 14 -15 8 -14 14 -29 14 -35z"/>
<path d="M6819 4676 c-3 -3 -156 -27 -467 -71 -52 -7 -95 -15 -97 -17 -1 -1
-6 -17 -9 -34 l-7 -31 53 -7 c163 -21 166 -21 253 14 11 4 43 15 70 25 53 18
61 21 140 54 71 30 80 36 83 55 3 14 -8 22 -19 12z"/>
<path d="M2422 4578 c-39 -29 -69 -59 -67 -65 2 -7 20 -38 40 -69 l36 -56 27
18 c26 17 208 150 226 165 14 13 -101 59 -147 59 -36 0 -55 -8 -115 -52z"/>
<path d="M2650 4522 c-157 -113 -200 -146 -200 -154 0 -4 28 -48 63 -96 89
-123 101 -144 146 -262 29 -75 42 -128 47 -185 4 -44 10 -87 15 -96 8 -15 305
-238 487 -365 86 -60 233 -144 252 -144 10 0 276 232 297 259 7 10 9 35 6 66
-5 44 -2 55 20 81 23 27 30 29 87 27 60 -1 61 -1 87 38 l26 40 -23 45 c-21 44
-22 47 -6 87 l16 41 -272 268 c-271 265 -273 267 -316 268 -59 0 -283 32 -354
50 -84 22 -117 29 -198 46 -47 9 -89 21 -94 26 -14 12 -15 12 -86 -40z"/>
<path d="M5965 4544 c-10 -3 -170 -35 -385 -74 -157 -30 -160 -31 -175 -70 -7
-19 -15 -42 -19 -50 -4 -11 107 -128 377 -398 364 -364 385 -383 406 -371 27
17 27 32 0 312 -16 171 -24 226 -40 253 -16 29 -19 54 -19 163 l0 129 -37 28
c-21 15 -41 34 -46 40 -11 20 -38 44 -45 43 -4 0 -11 -2 -17 -5z"/>
<path d="M5143 4278 c-31 -29 -66 -62 -77 -73 -12 -11 -112 -103 -221 -205
-344 -319 -309 -280 -306 -336 1 -27 7 -54 14 -61 7 -6 57 -30 112 -53 159
-67 282 -119 559 -239 142 -61 264 -111 270 -111 21 0 64 49 60 67 -16 71
-162 669 -195 798 -62 247 -57 235 -80 235 -11 0 -33 7 -50 15 -29 16 -30 15
-86 -37z"/>
<path d="M5324 4288 c14 -63 110 -468 136 -568 16 -63 41 -169 55 -235 15 -65
36 -147 46 -182 17 -53 23 -63 43 -63 13 0 31 -9 41 -20 10 -11 28 -20 39 -19
12 0 77 26 146 57 120 55 125 59 122 86 -2 15 2 41 8 57 15 36 41 -3 -328 512
-260 364 -321 438 -308 375z"/>
<path d="M5421 4240 c29 -41 89 -127 134 -190 178 -252 360 -508 396 -556 l38
-52 48 5 c57 6 78 25 87 75 l7 37 -376 373 c-207 205 -379 375 -382 378 -3 3
18 -29 48 -70z"/>
<path d="M6170 4048 c0 -43 40 -441 45 -448 4 -6 13 -10 21 -10 8 0 23 -5 33
-12 15 -9 24 -8 43 4 19 13 23 24 23 66 0 38 5 56 23 74 12 14 22 31 22 39 0
25 -72 233 -85 248 -10 11 -107 51 -122 51 -2 0 -3 -6 -3 -12z"/>
<path d="M6334 3958 c23 -70 64 -187 71 -198 10 -17 34 1 40 32 6 24 -2 47
-35 111 -43 82 -54 97 -77 97 -9 0 -9 -10 1 -42z"/>
<path d="M4136 3594 c-161 -21 -183 -28 -191 -64 -4 -17 -15 -35 -26 -40 -22
-12 -24 -36 -8 -90 11 -36 14 -38 61 -43 60 -8 58 -9 218 106 145 105 171 127
164 138 -7 12 -89 9 -218 -7z"/>
<path d="M4498 3571 c-32 -18 -34 -36 -18 -141 15 -99 19 -110 36 -110 20 0
77 -57 69 -69 -3 -5 14 -12 37 -15 137 -18 735 -66 823 -66 45 0 48 1 30 14
-30 20 -871 380 -925 395 -16 5 -35 2 -52 -8z"/>
<path d="M6322 3562 c-13 -13 -18 -28 -15 -46 6 -31 7 -31 45 -5 19 14 28 28
26 42 -4 29 -32 33 -56 9z"/>
<path d="M4213 3464 c-179 -128 -184 -133 -177 -161 7 -26 24 -30 169 -38 61
-3 127 -8 147 -11 32 -5 41 -1 75 33 50 49 54 61 43 130 -6 32 -13 73 -16 90
-5 33 -43 63 -78 63 -8 0 -81 -48 -163 -106z"/>
<path d="M3744 3448 c-111 -93 -264 -232 -264 -240 0 -4 12 -14 26 -20 22 -10
44 -8 135 16 206 53 208 54 223 91 8 18 19 36 25 39 14 9 14 54 0 93 -7 22
-18 32 -37 36 -15 3 -36 8 -48 12 -15 5 -31 -3 -60 -27z"/>
<path d="M5843 3251 c-128 -54 -155 -71 -165 -107 -7 -30 -26 -54 -61 -77 -15
-10 -18 -23 -15 -66 l3 -52 165 152 c172 159 201 189 178 189 -7 -1 -54 -18
-105 -39z"/>
<path d="M5818 3129 c-84 -78 -164 -152 -177 -165 l-24 -23 46 12 c40 11 62
29 186 160 78 81 141 150 141 152 0 17 -35 -11 -172 -136z"/>
<path d="M4069 3253 c-16 -3 -31 -14 -38 -30 -10 -23 -9 -29 12 -52 59 -65
307 -331 353 -378 30 -32 60 -53 72 -53 22 0 22 2 22 194 l0 194 -27 18 c-35
22 -52 44 -53 65 0 22 -25 28 -155 34 -60 3 -121 7 -135 9 -14 1 -37 1 -51 -1z"/>
<path d="M3720 3213 c-47 -14 -105 -30 -128 -36 l-44 -12 74 -41 c40 -23 100
-56 133 -74 33 -18 74 -41 91 -51 l32 -19 5 22 c3 13 11 58 17 100 12 75 12
78 -11 107 -30 37 -53 37 -169 4z"/>
<path d="M4590 3205 c-6 -8 -9 -19 -6 -24 8 -12 363 -303 393 -321 18 -12 46
0 249 105 258 133 274 142 274 160 0 16 -66 35 -121 35 -24 0 -201 14 -394 30
-411 35 -379 34 -395 15z"/>
<path d="M3963 3182 c-35 -3 -36 -5 -53 -97 -6 -33 -13 -70 -16 -83 -4 -20 4
-27 63 -53 37 -17 82 -36 98 -44 17 -7 71 -30 120 -50 98 -40 147 -61 182 -78
13 -6 26 -8 29 -4 6 6 -346 384 -375 402 -9 6 -30 9 -48 7z"/>
<path d="M4533 3148 c-23 -11 -23 -13 -23 -218 l0 -207 38 -7 c30 -5 74 6 229
56 106 35 193 65 193 68 0 6 -328 275 -369 302 -30 20 -37 21 -68 6z"/>
<path d="M5270 2973 c-126 -64 -228 -118 -227 -119 2 -2 43 3 92 12 85 13 430
64 440 64 3 0 5 29 5 64 0 62 -1 65 -32 80 -17 9 -35 16 -40 16 -5 0 -112 -53
-238 -117z"/>
<path d="M5638 2933 c-23 -6 -23 -19 -1 -27 10 -4 25 1 37 14 20 20 20 20 1
19 -11 -1 -28 -3 -37 -6z"/>
<path d="M5435 2899 c-66 -10 -187 -28 -268 -41 -81 -12 -153 -25 -158 -29 -9
-5 16 -165 37 -240 3 -11 46 -24 167 -47 89 -18 165 -32 169 -32 9 0 67 113
100 193 12 28 24 79 27 112 5 53 9 60 31 65 22 5 44 42 23 39 -4 -1 -62 -10
-128 -20z"/>
<path d="M5602 2898 c3 -7 13 -15 24 -17 16 -3 17 -1 5 13 -16 19 -34 21 -29
4z"/>
<path d="M4790 2764 c-91 -31 -167 -58 -169 -60 -8 -7 7 -16 41 -24 18 -4 79
-22 135 -39 56 -17 109 -31 116 -31 9 0 22 32 37 96 12 52 25 93 27 90 3 -3
-5 -48 -18 -100 -12 -53 -21 -97 -18 -99 2 -2 23 -7 47 -11 50 -8 50 -8 23
115 -22 100 -29 119 -45 119 -6 0 -85 -25 -176 -56z"/>
<path d="M5457 2621 c-26 -54 -47 -103 -47 -108 0 -4 25 -14 56 -22 66 -15 74
-10 93 56 10 38 9 47 -19 107 -16 36 -31 66 -33 66 -2 0 -25 -44 -50 -99z"/>
</g>
</svg>
