<svg id="Layer_1" data-name="Layer 1" xmlns="http://www.w3.org/2000/svg" xmlns:xlink="http://www.w3.org/1999/xlink" viewBox="0 0 320 20"><defs><style>.cls-1{fill:none;}.cls-2{clip-path:url(#clip-path);}.cls-3{fill:#231f3a;}.cls-4{fill:#302b4b;}.cls-5{fill:#282341;}</style><clipPath id="clip-path"><rect class="cls-1" x="0.33" width="319.67" height="20"/></clipPath></defs><g class="cls-2"><g class="cls-2"><g id="Layer_1-2" data-name="Layer 1-2"><polygon class="cls-3" points="166.07 6.89 300.49 15.63 366.74 7.22 464.88 14.53 458.82 12.03 561.24 18.57 561.24 -72.2 482.56 -49.68 375.84 -65.06 280.4 -49.29 183.91 -68.47 104.29 -54.51 0.33 -69.68 0 16.65 166.07 6.89"/><polygon class="cls-3" points="166.07 5.63 166.07 7.99 300.38 16.01 300.38 15.02 166.07 5.63"/><polygon class="cls-3" points="166.07 5.63 166.07 7.99 0 20 0 16.65 166.07 5.63"/><polygon class="cls-3" points="366.36 5.79 366.36 8.48 300.38 16.01 300.38 15.02 366.36 5.79"/></g><g id="Layer_1-3" data-name="Layer 1-3"><polyline class="cls-3" points="375.84 -65.06 280.4 -49.29 183.91 -68.47 104.29 -54.51 0.33 -69.68 0 16.65 166.07 6.89 300.49 15.63 366.74 7.22"/><polygon class="cls-4" points="166.07 5.63 166.07 7.99 300.38 16.01 300.38 15.02 166.07 5.63"/><polygon class="cls-5" points="166.07 5.63 166.07 7.99 0 20 0 16.65 166.07 5.63"/><polygon class="cls-5" points="366.36 5.79 366.36 8.48 300.38 16.01 300.38 15.02 366.36 5.79"/></g></g></g></svg>